<svg width="160" height="21" viewBox="0 0 160 21" fill="none" xmlns="http://www.w3.org/2000/svg">
<path d="M3.57411 0.261749C3.61907 0.321818 3.49488 0.489324 3.2968 0.635953C3.09873 0.782582 2.90164 0.852598 2.85663 0.792627C2.81162 0.732655 2.93586 0.565051 3.13394 0.418422C3.33201 0.271793 3.5291 0.201679 3.57411 0.261749Z" fill="#1C4480"/>
<path d="M3.34491 0.28666C3.34491 0.343356 3.328 0.398779 3.29632 0.44592C3.26464 0.493061 3.21962 0.529803 3.16694 0.5515C3.11426 0.573196 3.05629 0.578873 3.00037 0.567812C2.94444 0.556751 2.89307 0.52945 2.85275 0.489359C2.81243 0.449269 2.78497 0.398191 2.77385 0.342585C2.76273 0.286978 2.76844 0.22934 2.79026 0.17696C2.81208 0.12458 2.84903 0.0798095 2.89644 0.0483109C2.94385 0.0168122 2.99959 4.23042e-09 3.05661 4.23042e-09C3.09447 -6.4637e-06 3.13196 0.00740379 3.16695 0.0218075C3.20193 0.0362113 3.23371 0.0573262 3.26048 0.0839463C3.28726 0.110566 3.30849 0.14217 3.32298 0.176952C3.33747 0.211735 3.34492 0.249014 3.34491 0.28666Z" fill="#1C4480"/>
<path d="M19.6743 0.306649C19.6743 0.363345 19.6912 0.418768 19.7229 0.465909C19.7546 0.51305 19.7996 0.549792 19.8523 0.571489C19.905 0.593185 19.9629 0.598862 20.0189 0.587801C20.0748 0.57674 20.1262 0.549439 20.1665 0.509349C20.2068 0.469258 20.2343 0.418181 20.2454 0.362574C20.2565 0.306967 20.2508 0.249329 20.229 0.196949C20.2072 0.144569 20.1702 0.0997987 20.1228 0.0683001C20.0754 0.0368014 20.0196 0.019989 19.9626 0.019989C19.8862 0.0200021 19.8128 0.0502079 19.7588 0.103964C19.7047 0.157721 19.6743 0.230626 19.6743 0.306649Z" fill="#1C4480"/>
<path d="M1.76494 14.2085L1.72106 14.186C1.70698 14.1779 1.6957 14.1658 1.6887 14.1512C1.6817 14.1366 1.67931 14.1202 1.68184 14.1043C1.69883 13.8852 1.7013 13.3362 1.35957 12.9702C1.01532 12.6016 1.00076 12.0593 0.988179 11.5805C0.985555 11.4835 0.983228 11.392 0.978276 11.3042C0.95723 10.9412 0.889141 10.8958 0.663681 10.7456C0.595592 10.7003 0.510865 10.6438 0.413362 10.5681C-0.0719255 10.1917 -0.0273583 8.50335 0.0434045 7.93092C0.167202 6.93297 0.351512 6.27162 0.591482 5.96462C0.94802 5.50878 1.11317 5.13408 1.07023 5.07628C1.06591 5.07469 1.06137 5.07379 1.05676 5.07362C0.760887 5.05102 0.778961 4.78041 0.787627 4.65018C0.789063 4.62896 0.79045 4.60956 0.79045 4.59311C0.79045 4.46741 1.01586 3.94672 1.08499 3.7901C1.60553 2.61461 3.10581 0.783466 3.12092 0.765101L3.19837 0.67086L3.2467 0.782678C4.20974 3.01279 4.89756 3.3539 5.45054 3.62826C5.50209 3.65386 5.5526 3.67892 5.60212 3.70477L5.67318 3.7419L5.6305 3.8095C5.02092 4.77327 3.40179 5.9338 3.11874 5.99249L3.09343 5.99771L3.09839 6.00165L3.12394 6.02095C3.25685 6.1207 3.43883 6.25729 3.44918 6.64823C3.45829 6.99289 2.9165 7.71668 2.39254 8.41714C2.29974 8.54121 2.20987 8.6613 2.12756 8.77361C1.69452 9.36446 1.79742 9.47618 1.96792 9.66102C1.98584 9.68042 2.00426 9.70041 2.02283 9.72153C2.26052 9.99145 2.26018 10.0484 2.01852 10.9394C1.8353 11.6152 1.88175 11.8071 1.97435 12.1893C2.00089 12.2987 2.0309 12.4227 2.06002 12.5765C2.17887 13.2036 1.88903 14.1201 1.80316 14.1813L1.76494 14.2085ZM3.15944 0.953434C2.84663 1.34285 1.66595 2.84469 1.22047 3.84982C1.08489 4.15711 0.938512 4.52886 0.938512 4.59331C0.938512 4.61251 0.937026 4.63531 0.935392 4.66017C0.923359 4.83984 0.939106 4.9165 1.06766 4.92635C1.09708 4.92703 1.12571 4.93597 1.15024 4.95213C1.17477 4.96829 1.19421 4.99101 1.20631 5.01769C1.31684 5.26619 0.770989 5.97526 0.708397 6.05532C0.488235 6.33676 0.309124 6.99161 0.190426 7.94899C0.138711 8.42174 0.132907 8.89834 0.173095 9.37219C0.223505 9.94167 0.341163 10.325 0.504378 10.4517C0.597622 10.5241 0.676457 10.5765 0.745932 10.6229C0.998479 10.7911 1.10183 10.8761 1.12619 11.2957C1.13144 11.3857 1.13391 11.4785 1.13654 11.5767C1.14867 12.029 1.16244 12.5417 1.46832 12.8697C1.70522 13.1233 1.79445 13.4503 1.82367 13.7188C1.90468 13.4135 1.98332 12.9685 1.91414 12.6035C1.88571 12.4534 1.85615 12.3314 1.82995 12.2237C1.73453 11.8298 1.68194 11.6131 1.87512 10.9007C2.10786 10.0423 2.10053 10.0341 1.91102 9.81863C1.89329 9.79844 1.87561 9.77924 1.85843 9.76063C1.63792 9.52168 1.52719 9.34211 2.00748 8.68651C2.09008 8.57376 2.18025 8.45323 2.27335 8.3288C2.73452 7.7124 3.3083 6.94523 3.30067 6.65188C3.2922 6.33218 3.15528 6.22932 3.03446 6.13867L3.00782 6.11854C2.98405 6.10037 2.96275 6.08604 2.94547 6.07422C2.90066 6.04409 2.85436 6.01297 2.86594 5.95453C2.87857 5.89091 2.9272 5.88067 3.08824 5.84743C3.30458 5.80263 4.82636 4.73762 5.4602 3.79803C5.43505 3.78537 5.40959 3.77282 5.38389 3.76006C4.81927 3.48005 4.11858 3.13258 3.15944 0.953434Z" fill="#1C4480"/>
<path d="M4.10252 2.57335C4.10252 2.57335 4.39756 3.08665 4.03552 5.26663C3.43203 5.7333 3.33819 5.79997 3.33819 5.79997C3.33819 5.79997 3.56598 4.69331 3.53934 3.71999C3.5127 2.74666 3.11694 0.866679 3.11694 0.866679L3.17835 0.811829L4.10252 2.57335Z" fill="#1C4480"/>
<path d="M2.5002 1.69997C2.5002 1.69997 3.06343 3.39999 2.9226 5.93995C3.05037 6.05367 3.16506 6.18112 3.26458 6.31997C3.20184 6.25828 3.12566 6.21177 3.04195 6.18402C2.95825 6.15627 2.86924 6.14804 2.78182 6.15995C2.4801 6.19998 2.23874 6.33996 2.19848 5.75999C2.15823 5.18002 2.45999 3.73998 1.75598 2.76001C2.25885 1.97999 2.5002 1.69997 2.5002 1.69997Z" fill="#1C4480"/>
<path d="M1.1928 3.7C1.1928 3.7 1.65541 4.13998 1.75598 4.91995C1.85655 5.69992 1.79619 6.55995 2.41954 6.63996C3.04288 6.71997 3.37526 6.64981 3.37526 6.64981L3.02323 7.4798C3.02323 7.4798 2.17843 7.63983 1.8566 6.8798C1.53478 6.11977 1.71577 5.12015 1.06202 4.99996C0.770403 4.89996 0.864241 4.59331 0.864241 4.59331L1.1928 3.7Z" fill="#1C4480"/>
<path d="M0.971472 5.55999C0.971472 5.55999 1.33351 5.79997 1.41397 6.79998C1.49444 7.8 2.50013 8.13993 2.50013 8.13993L1.93695 8.91995C1.93695 8.91995 1.43408 8.43994 1.3134 7.99995C1.19272 7.55996 1.23293 6.61997 0.347778 6.70008C0.428346 6.31997 0.830639 5.76024 0.971472 5.55999Z" fill="#1C4480"/>
<path d="M0.207067 7.19994C0.207067 7.19994 0.709934 7.84002 0.931185 8.33993C1.15244 8.83984 1.83634 9.67993 1.83634 9.67993L2.09781 9.93995L2.11796 10.2799C2.11796 10.2799 1.81624 10.0999 1.53462 9.91996C1.25301 9.74 1.11223 9.49996 0.931185 9.26018C0.750143 9.02039 0.508787 8.8002 0.0662842 8.58021C0.0849864 8.1177 0.132001 7.65676 0.207067 7.19994Z" fill="#1C4480"/>
<path d="M0.0864258 9.15993C0.0864258 9.15993 0.569188 9.81995 0.749982 9.91996C0.930776 10.02 1.53446 10.1999 1.6954 10.4999C1.85634 10.7999 1.95686 10.9999 1.95686 10.9999L1.81608 11.7199C1.81608 11.7199 1.63504 11.1399 1.35342 10.9599C1.07181 10.78 0.387799 10.54 0.307479 10.3599C0.227159 10.1799 0.0864258 9.15993 0.0864258 9.15993Z" fill="#1C4480"/>
<path d="M1.01172 11.2399C1.01172 11.2399 1.35365 11.7999 1.53469 12.0399C1.71573 12.2799 2.01745 12.7599 2.01745 12.7599L1.95709 13.4399C1.95709 13.4399 1.91688 12.9399 1.67547 12.7801C1.43407 12.6203 1.09219 12.4601 1.09219 12.3801C1.09219 12.3001 1.01172 11.2399 1.01172 11.2399Z" fill="#1C4480"/>
<path d="M11.5315 15.701C10.473 15.701 9.43838 15.3889 8.55833 14.8042C7.67827 14.2196 6.99235 13.3885 6.58731 12.4162C6.18226 11.444 6.07627 10.3741 6.28276 9.34189C6.48924 8.3097 6.99891 7.36158 7.74733 6.61741C8.49574 5.87325 9.44929 5.36646 10.4874 5.16115C11.5255 4.95583 12.6015 5.0612 13.5793 5.46394C14.5572 5.86667 15.393 6.54868 15.981 7.42372C16.569 8.29876 16.8829 9.32753 16.8829 10.3799C16.8813 11.7907 16.317 13.1432 15.3137 14.1407C14.3105 15.1382 12.9503 15.6994 11.5315 15.701ZM11.5315 5.35438C10.5318 5.35437 9.55458 5.64911 8.72339 6.20132C7.8922 6.75354 7.24436 7.53843 6.8618 8.45675C6.47924 9.37506 6.37914 10.3855 6.57416 11.3604C6.76919 12.3353 7.25057 13.2308 7.95744 13.9336C8.66431 14.6365 9.56491 15.1151 10.5454 15.309C11.5258 15.503 12.5421 15.4034 13.4657 15.023C14.3892 14.6427 15.1786 13.9985 15.734 13.172C16.2894 12.3456 16.5858 11.3739 16.5858 10.3799C16.5843 9.04754 16.0513 7.77015 15.1037 6.828C14.1562 5.88585 12.8715 5.35589 11.5315 5.35438Z" fill="#1C4480"/>
<path d="M11.5449 15.1997C10.5889 15.1997 9.65429 14.9178 8.85936 14.3897C8.06444 13.8616 7.44487 13.1109 7.07901 12.2327C6.71315 11.3544 6.61743 10.388 6.80395 9.45566C6.99047 8.52332 7.45086 7.66691 8.1269 6.99473C8.80294 6.32255 9.66426 5.8648 10.6019 5.67936C11.5396 5.49391 12.5116 5.58911 13.3948 5.95291C14.2781 6.3167 15.033 6.93276 15.5642 7.72318C16.0953 8.51359 16.3788 9.44286 16.3788 10.3935C16.3773 11.6677 15.8676 12.8894 14.9613 13.7904C14.0551 14.6915 12.8265 15.1983 11.5449 15.1997ZM11.5449 5.68549C10.6085 5.68549 9.69304 5.9616 8.9144 6.47891C8.13577 6.99621 7.5289 7.73147 7.17053 8.59172C6.81216 9.45197 6.71838 10.3986 6.90107 11.3118C7.08376 12.225 7.53469 13.0639 8.19686 13.7223C8.85903 14.3807 9.70268 14.8291 10.6211 15.0108C11.5396 15.1925 12.4916 15.0992 13.3568 14.7429C14.222 14.3866 14.9614 13.7832 15.4817 13.009C16.002 12.2348 16.2797 11.3246 16.2797 10.3935C16.2783 9.14528 15.7791 7.9486 14.8914 7.06599C14.0038 6.18337 12.8003 5.6869 11.5449 5.68549Z" fill="#1C4480"/>
<path d="M22.4184 14.9883L22.2798 14.9422C22.2832 14.9195 22.6181 12.6563 22.0742 11.7099C21.8522 11.3237 21.5565 10.9478 21.2706 10.5843C20.8294 10.0237 20.4485 9.53946 20.4485 9.15329C20.4552 8.88818 20.49 8.62452 20.5525 8.36672C20.6049 8.11812 20.65 7.90334 20.6112 7.72929C20.5881 7.62916 20.5598 7.53029 20.5263 7.43308C20.4654 7.24671 20.3963 7.03558 20.3283 6.52292C20.2212 5.71361 20.1562 5.38446 19.6152 5.36713C18.9618 5.34615 18.552 5.19745 17.3694 3.86214L17.3041 3.78828L17.3935 3.74643C17.4037 3.7415 18.4212 3.25814 18.9661 2.45848C19.8224 1.20159 19.865 0.811829 19.8653 0.808037L19.8844 0.588242L20.0023 0.773916C20.2875 1.22646 21.1215 2.40417 21.5512 2.41938L21.5579 2.41963C22.162 2.44105 22.2808 2.47433 22.4464 3.40024C22.4811 3.59345 22.5194 3.83796 22.564 4.12112C22.7275 5.15915 22.9515 6.58078 23.2517 7.21505C23.4601 7.65548 23.2689 8.29537 23.1068 8.73836L23.1014 8.75313C22.7216 9.7692 23.0301 10.435 23.1806 10.6741C23.5337 11.2359 23.5114 12.135 23.1143 13.3465C22.9261 13.9111 22.6934 14.46 22.4184 14.9883ZM17.5448 3.83633C18.6441 5.06752 19.0097 5.19992 19.62 5.21951C20.3087 5.24157 20.3752 5.74364 20.4758 6.50372C20.5418 7.00279 20.6087 7.20713 20.6677 7.38739C20.7026 7.48908 20.7321 7.59252 20.7562 7.69729C20.8021 7.90241 20.7538 8.13161 20.698 8.397C20.6378 8.64487 20.6039 8.89837 20.5971 9.15329C20.5971 9.48854 20.981 9.97658 21.3875 10.4933C21.6768 10.8609 21.9759 11.241 22.2032 11.6366C22.6279 12.3756 22.5514 13.8104 22.4791 14.5315C22.8694 13.6985 23.6702 11.7318 23.0545 10.7524C22.8926 10.4948 22.5593 9.77919 22.9622 8.70168L22.9672 8.68804C23.0553 8.44707 23.3237 7.71383 23.1173 7.27808C22.8081 6.6247 22.5822 5.19095 22.4173 4.14412C22.3727 3.86174 22.3344 3.61792 22.3001 3.42629C22.1503 2.58856 22.0938 2.58654 21.5524 2.56739H21.5457C21.2893 2.55833 20.9289 2.26369 20.4743 1.69185C20.2598 1.42213 20.0732 1.15093 19.9676 0.992678C19.8883 1.21715 19.6735 1.68358 19.0888 2.54174C18.6105 3.24371 17.8109 3.69822 17.5448 3.83633Z" fill="#1C4480"/>
<path d="M18.777 2.83923C18.8785 3.00255 19.0859 3.23401 19.3035 3.1537C19.3747 3.12596 19.4355 3.0768 19.4774 3.01308C19.5193 2.94937 19.5401 2.87426 19.537 2.79821C19.5249 2.67239 19.4777 2.55243 19.4008 2.45178C19.3547 2.38458 19.302 2.32201 19.2437 2.26497C19.2228 2.24419 19.1945 2.23252 19.1649 2.23252C19.1354 2.23252 19.107 2.24419 19.0861 2.26497C19.0652 2.28575 19.0535 2.31392 19.0535 2.34331C19.0535 2.37269 19.0652 2.40087 19.0861 2.42164C19.1221 2.45719 19.1559 2.49489 19.1873 2.53454C19.2013 2.55163 19.1711 2.51263 19.1844 2.5309C19.188 2.53582 19.1918 2.54075 19.1955 2.54567C19.2018 2.55421 19.2079 2.56282 19.2139 2.57152C19.229 2.59333 19.2433 2.61583 19.2565 2.63868C19.2708 2.65919 19.2822 2.68156 19.2903 2.70515C19.29 2.70353 19.2804 2.6796 19.287 2.69737C19.2893 2.70367 19.2919 2.70988 19.2941 2.71623C19.2987 2.72874 19.3027 2.74144 19.3061 2.75429C19.3082 2.76222 19.3175 2.78492 19.3144 2.7926C19.3163 2.78767 19.3123 2.76685 19.313 2.78226C19.313 2.78866 19.3141 2.79501 19.3144 2.80136C19.3149 2.81303 19.3144 2.8245 19.3138 2.83612C19.3131 2.85739 19.3172 2.8312 19.3151 2.82854C19.3173 2.83135 19.3107 2.84971 19.3097 2.85316C19.3083 2.85808 19.3064 2.86301 19.3048 2.86832C19.3004 2.88334 19.3083 2.87714 19.3076 2.86281C19.308 2.87172 19.294 2.88743 19.2896 2.89481C19.2783 2.91451 19.2915 2.89068 19.2926 2.89211C19.2881 2.89791 19.2833 2.90338 19.2781 2.9085C19.2729 2.91402 19.2674 2.91933 19.2618 2.92445C19.2568 2.92889 19.237 2.94302 19.2593 2.92761C19.2534 2.93169 19.2476 2.93563 19.2415 2.93947L19.2355 2.94282C19.2247 2.94807 19.2276 2.94714 19.244 2.94001C19.2345 2.94455 19.2242 2.94742 19.2137 2.94848C19.2118 2.94553 19.2456 2.94848 19.219 2.94681C19.215 2.94645 19.2109 2.94637 19.2068 2.94656C19.1856 2.94868 19.2328 2.95395 19.2122 2.9475C19.2045 2.94504 19.1961 2.94331 19.1882 2.94129C19.1597 2.93401 19.2058 2.95232 19.1793 2.93804C19.1686 2.93228 19.1579 2.92677 19.1476 2.92027C19.1368 2.91415 19.1266 2.90706 19.1171 2.8991C19.1429 2.92308 19.1087 2.89122 19.1027 2.8858C19.0813 2.86637 19.061 2.84574 19.0419 2.82401C19.0338 2.8148 19.0259 2.8054 19.0181 2.7959C19.0149 2.79115 19.0112 2.78667 19.0073 2.7825C19.0102 2.78201 19.0248 2.8056 19.0116 2.78797C18.9968 2.76827 18.9822 2.74828 18.9693 2.72736C18.9543 2.70198 18.9299 2.68354 18.9013 2.67609C18.8727 2.66863 18.8423 2.67277 18.8168 2.6876C18.7913 2.70243 18.7727 2.72673 18.7652 2.75515C18.7577 2.78358 18.7619 2.8138 18.7768 2.83918L18.777 2.83923Z" fill="#1C4480"/>
<path d="M20.2466 3.37739C20.1775 3.27778 20.0968 3.18661 20.0063 3.1058C19.9633 3.06299 19.9064 3.0369 19.8458 3.03224C19.7991 3.03201 19.7526 3.03842 19.7078 3.0513C19.6347 3.07117 19.5708 3.1155 19.5267 3.1768C19.5028 3.21634 19.4872 3.26029 19.4809 3.30599C19.4745 3.35168 19.4776 3.39819 19.4898 3.44268C19.5166 3.54926 19.5729 3.64623 19.6523 3.7226C19.7219 3.79836 19.8122 3.8523 19.9122 3.87779C19.969 3.88922 20.0278 3.88518 20.0825 3.86612C20.1372 3.84705 20.1857 3.81366 20.2228 3.76947C20.3169 3.65258 20.3097 3.50723 20.2466 3.37739C20.2316 3.35215 20.2071 3.33383 20.1786 3.32639C20.15 3.31895 20.1197 3.323 20.0941 3.33766C20.0692 3.35301 20.0512 3.37731 20.0437 3.40552C20.0363 3.43374 20.04 3.46372 20.0542 3.48926C20.0556 3.49217 20.0632 3.50896 20.0561 3.49187C20.058 3.49655 20.0597 3.50133 20.0614 3.5061C20.0651 3.51674 20.0683 3.52757 20.0708 3.53855C20.0734 3.54982 20.0724 3.56396 20.0725 3.5446C20.0725 3.55573 20.073 3.56711 20.0732 3.57828C20.0732 3.59798 20.0792 3.5581 20.0723 3.58434C20.0698 3.5916 20.0678 3.59898 20.0661 3.60645C20.064 3.62048 20.0763 3.58877 20.0688 3.60078C20.0669 3.60384 20.0655 3.60748 20.0638 3.61063C20.0622 3.61378 20.06 3.61689 20.0582 3.62009C20.0469 3.64042 20.0613 3.62009 20.0608 3.61846C20.0616 3.62058 20.0479 3.63274 20.046 3.63456C20.0467 3.63382 20.0357 3.64466 20.0352 3.64441C20.0339 3.64352 20.0546 3.63249 20.0434 3.63825C20.0359 3.64214 20.0291 3.64781 20.0217 3.65189C20.0185 3.65362 20.0148 3.65495 20.0117 3.65682C20.0012 3.66376 20.0365 3.64918 20.0142 3.65563C20.0069 3.65775 19.9998 3.66021 19.9924 3.66204C19.9906 3.66248 19.9776 3.66499 19.9776 3.66514C19.9779 3.66327 20.001 3.66465 19.9904 3.66337C19.983 3.66292 19.9756 3.66292 19.9682 3.66337C19.951 3.66337 19.9922 3.66918 19.9682 3.66337C19.9601 3.66135 19.9521 3.65952 19.9442 3.65706C19.9399 3.65573 19.914 3.6451 19.9293 3.65214C19.9446 3.65918 19.9215 3.64805 19.9179 3.64618C19.9082 3.64123 19.8988 3.63591 19.8895 3.63023C19.8811 3.6253 19.8728 3.61969 19.8647 3.61403C19.8566 3.60837 19.8453 3.59818 19.8598 3.61058C19.8429 3.59581 19.8259 3.58168 19.8103 3.56573C19.7963 3.55169 19.7835 3.53683 19.7706 3.52171C19.7845 3.5383 19.7679 3.51772 19.7635 3.51142C19.7566 3.50157 19.7501 3.49146 19.7439 3.48109C19.7341 3.46458 19.7253 3.44751 19.7174 3.42998C19.7264 3.44967 19.7177 3.42924 19.7147 3.42013C19.7118 3.41102 19.709 3.40127 19.7067 3.39167C19.7059 3.38813 19.6988 3.35721 19.7027 3.3738C19.7062 3.38911 19.7019 3.36395 19.7017 3.35804C19.7013 3.35105 19.7013 3.34401 19.7017 3.33697C19.7017 3.33254 19.7023 3.32816 19.7025 3.32373C19.703 3.30698 19.703 3.33269 19.7009 3.33446C19.7037 3.33215 19.7043 3.31856 19.7055 3.31427C19.7097 3.2998 19.7181 3.29861 19.7027 3.31732C19.7103 3.30787 19.7164 3.29741 19.721 3.28626C19.7195 3.2961 19.7021 3.30664 19.718 3.29187C19.7215 3.28862 19.7251 3.28532 19.7285 3.28202C19.7441 3.26646 19.7092 3.29374 19.723 3.28626C19.7284 3.28325 19.7335 3.27936 19.739 3.27641C19.7431 3.27409 19.7473 3.27212 19.7515 3.26991C19.7713 3.25942 19.7403 3.2738 19.7439 3.27277C19.7547 3.26966 19.765 3.26528 19.7759 3.26242C19.7849 3.26006 19.7939 3.25804 19.8029 3.25642C19.8074 3.25558 19.8123 3.25533 19.8167 3.2541C19.8095 3.25612 19.7845 3.2576 19.8037 3.25598C19.8172 3.25484 19.8306 3.25371 19.8441 3.25366C19.8699 3.25366 19.8491 3.2541 19.8347 3.2514C19.852 3.25469 19.8135 3.23899 19.8248 3.24721C19.8284 3.24982 19.8329 3.25169 19.8368 3.25405C19.8417 3.25716 19.8467 3.261 19.8517 3.2639C19.8608 3.26942 19.8394 3.25405 19.8401 3.25489C19.8436 3.2583 19.8474 3.26138 19.8514 3.2641C19.9036 3.30994 19.9517 3.36029 19.995 3.41457C20.0131 3.43623 20.0308 3.45834 20.0483 3.4805C20.0578 3.49236 20.0291 3.45544 20.0424 3.47287C20.0446 3.47577 20.0468 3.47863 20.049 3.48153C20.0512 3.48444 20.0528 3.48646 20.0546 3.48897C20.07 3.51378 20.0944 3.53175 20.1228 3.53915C20.1512 3.54655 20.1814 3.5428 20.2071 3.5287C20.2322 3.51358 20.2504 3.4893 20.2578 3.46104C20.2651 3.43278 20.2611 3.40277 20.2466 3.37739Z" fill="#1C4480"/>
<path d="M21.0846 4.10133C21.0212 4.00494 20.9504 3.91352 20.873 3.82786C20.8349 3.78263 20.7842 3.74967 20.7273 3.73318C20.6677 3.71855 20.6055 3.71876 20.5461 3.73377C20.5099 3.74296 20.4759 3.75933 20.4463 3.78188C20.4166 3.80444 20.3918 3.83272 20.3734 3.86504C20.3302 3.9533 20.3204 4.05412 20.346 4.14894C20.373 4.24985 20.4256 4.34219 20.4987 4.41719C20.561 4.48878 20.6432 4.54047 20.735 4.56578C20.7894 4.57761 20.846 4.57532 20.8993 4.55915C20.9526 4.54297 21.0009 4.51345 21.0394 4.47342C21.08 4.4266 21.1067 4.36953 21.1167 4.30853C21.1266 4.24754 21.1194 4.18499 21.0958 4.12782C21.0874 4.09983 21.0685 4.07615 21.0429 4.06173C21.0174 4.04731 20.9872 4.04325 20.9588 4.05042C20.9305 4.05853 20.9065 4.07733 20.8919 4.1028C20.8774 4.12827 20.8735 4.15839 20.881 4.18671C20.8878 4.20644 20.8936 4.22655 20.8982 4.24692C20.9014 4.25948 20.8974 4.24062 20.8973 4.23924C20.8973 4.24348 20.898 4.24771 20.8982 4.25195C20.8986 4.26268 20.8968 4.27366 20.8974 4.2843C20.8981 4.29759 20.8971 4.27327 20.8986 4.27396C20.898 4.27766 20.8972 4.28133 20.8962 4.28494C20.8942 4.29332 20.8915 4.30155 20.8883 4.30955C20.8861 4.30896 20.8997 4.28956 20.8922 4.29931C20.889 4.30559 20.8854 4.31166 20.8815 4.31748C20.8769 4.32817 20.899 4.29902 20.8842 4.31438C20.8792 4.3193 20.8748 4.32452 20.8697 4.32915C20.8672 4.33146 20.8643 4.33353 20.8618 4.33594C20.8536 4.34417 20.8699 4.32851 20.8706 4.3291C20.8701 4.32866 20.8523 4.34008 20.8497 4.34171C20.8289 4.35416 20.8641 4.33826 20.8471 4.34323C20.8391 4.34564 20.8312 4.34816 20.823 4.35022C20.8194 4.35106 20.8158 4.35165 20.8123 4.35249C20.7999 4.35525 20.8113 4.35461 20.8123 4.35249C20.8148 4.34835 20.8245 4.352 20.8123 4.35195C20.8088 4.35195 20.8052 4.35229 20.8017 4.35229C20.7977 4.35192 20.7936 4.35178 20.7895 4.3519C20.7778 4.35328 20.812 4.35682 20.8003 4.35342C20.7954 4.35205 20.7595 4.34018 20.7583 4.34116C20.7592 4.34043 20.7786 4.35131 20.7682 4.34525C20.7651 4.34338 20.7615 4.34205 20.7583 4.34033C20.7492 4.33575 20.7403 4.33048 20.7317 4.32556C20.725 4.32137 20.7186 4.31679 20.7119 4.31246C20.6945 4.30104 20.7247 4.32364 20.7085 4.31005C20.6932 4.29744 20.6786 4.28408 20.6647 4.27002C20.6576 4.26279 20.6507 4.25538 20.6441 4.24776C20.6414 4.24471 20.6247 4.22531 20.6332 4.23535C20.6416 4.2454 20.6324 4.23442 20.6311 4.23264C20.6277 4.22772 20.6242 4.22314 20.6208 4.21832C20.615 4.20991 20.6094 4.20131 20.604 4.19252C20.5941 4.17642 20.5855 4.15977 20.5772 4.14284C20.5677 4.12358 20.5821 4.15761 20.5751 4.13791C20.5714 4.12738 20.5676 4.11689 20.5645 4.10615C20.5623 4.09828 20.5604 4.09032 20.5586 4.08227C20.5578 4.07838 20.5574 4.0742 20.5564 4.07036C20.5529 4.05785 20.5587 4.07961 20.5576 4.08021C20.558 4.08021 20.5553 4.02678 20.5555 4.02112C20.5555 4.01713 20.5561 3.98729 20.5563 4.00635C20.5563 4.02344 20.5573 4.0034 20.5586 3.99783C20.5604 3.99069 20.5628 3.98385 20.5648 3.97681C20.5698 3.96036 20.5524 3.99867 20.564 3.97942C20.5672 3.9741 20.5707 3.96858 20.5739 3.96312C20.582 3.94835 20.557 3.98045 20.5689 3.96927C20.5726 3.96593 20.576 3.96213 20.5794 3.95859C20.5962 3.94141 20.5646 3.96662 20.5759 3.9609C20.5801 3.95879 20.5839 3.95598 20.5881 3.95347C20.5922 3.95096 20.612 3.94249 20.5917 3.95091C20.5721 3.95908 20.5889 3.95209 20.5937 3.95091C20.5996 3.94928 20.6055 3.94741 20.6115 3.94598C20.6161 3.94535 20.6206 3.94447 20.625 3.94333C20.6312 3.94116 20.594 3.94579 20.6135 3.945C20.6238 3.94461 20.6339 3.94382 20.6443 3.94411C20.6492 3.94411 20.6542 3.9447 20.6591 3.94495C20.6777 3.94584 20.6512 3.94495 20.6455 3.94283C20.6535 3.94559 20.6628 3.94574 20.671 3.94776C20.6774 3.95047 20.6841 3.95256 20.6909 3.95401C20.6943 3.95401 20.6646 3.93924 20.674 3.94717C20.6777 3.94995 20.6816 3.95234 20.6858 3.95431C20.69 3.95623 20.6632 3.93461 20.6767 3.94736C20.6809 3.9513 20.6854 3.95485 20.6895 3.95874C20.6984 3.96706 20.7069 3.97577 20.7152 3.98464C20.7378 4.00871 20.7589 4.03387 20.7796 4.05982C20.7832 4.0643 20.8004 4.08685 20.7902 4.07307C20.7799 4.05928 20.7951 4.07986 20.7982 4.08355C20.8081 4.09668 20.8179 4.10981 20.8275 4.12294C20.8495 4.15278 20.8712 4.18287 20.8919 4.21349C20.8992 4.2263 20.9089 4.23754 20.9206 4.24656C20.9323 4.25559 20.9456 4.26221 20.9599 4.26605C20.9742 4.26989 20.9891 4.27087 21.0037 4.26893C21.0184 4.26699 21.0325 4.26216 21.0453 4.25474C21.058 4.24732 21.0692 4.23745 21.0781 4.22571C21.087 4.21396 21.0934 4.20057 21.097 4.18632C21.1007 4.17207 21.1014 4.15724 21.0993 4.1427C21.0971 4.12816 21.092 4.1142 21.0843 4.10162L21.0846 4.10133Z" fill="#1C4480"/>
<path d="M21.5855 5.10385C21.563 5.00045 21.5378 4.89705 21.505 4.79646C21.4898 4.7351 21.4609 4.6779 21.4205 4.62905C21.3797 4.58487 21.3259 4.55464 21.2667 4.54269C21.0502 4.50675 20.9449 4.75564 20.9512 4.93413C20.9548 5.02623 20.9738 5.11709 21.0076 5.20296C21.0344 5.28534 21.081 5.36 21.1433 5.42049C21.184 5.45653 21.2352 5.47867 21.2894 5.48369C21.3436 5.4887 21.3981 5.47632 21.4447 5.44836C21.55 5.37943 21.5834 5.25141 21.5896 5.13324C21.5894 5.10392 21.5776 5.07585 21.5567 5.05512C21.5358 5.03439 21.5076 5.02265 21.4781 5.02246C21.4488 5.02309 21.4208 5.03496 21.4 5.0556C21.3793 5.07624 21.3673 5.10406 21.3667 5.13324C21.3662 5.14358 21.3654 5.15387 21.3645 5.16416C21.3645 5.16608 21.3618 5.18223 21.364 5.16909C21.3664 5.15486 21.3628 5.17431 21.3621 5.17765C21.3584 5.19617 21.3514 5.2135 21.3473 5.23182C21.3512 5.21547 21.3522 5.22197 21.3459 5.23379C21.3421 5.24117 21.3366 5.24801 21.333 5.25545C21.3281 5.2653 21.3385 5.24703 21.3402 5.24673C21.3387 5.24673 21.3349 5.25299 21.3337 5.25417C21.3314 5.25634 21.3287 5.2587 21.3269 5.26106C21.3159 5.27382 21.3325 5.25397 21.335 5.25574C21.335 5.25574 21.3207 5.26451 21.3195 5.26559C21.3053 5.27544 21.3442 5.25737 21.321 5.26431C21.3181 5.26515 21.3151 5.26584 21.3121 5.26638C21.3114 5.26412 21.3382 5.26599 21.3266 5.26441C21.3249 5.26441 21.3043 5.26441 21.3044 5.26441C21.3052 5.2618 21.3323 5.27012 21.3074 5.26377C21.3015 5.26224 21.2748 5.25269 21.2956 5.26077C21.3147 5.26815 21.2984 5.26077 21.2936 5.25826C21.275 5.24787 21.308 5.27303 21.2968 5.26096C21.2879 5.25151 21.2788 5.24171 21.2697 5.23246C21.262 5.22468 21.2771 5.24137 21.277 5.24191C21.277 5.24024 21.2721 5.23502 21.2711 5.23359C21.2666 5.22665 21.2619 5.2199 21.2576 5.21286C21.2491 5.19888 21.2413 5.1845 21.2341 5.16983C21.2306 5.16274 21.2276 5.15535 21.2241 5.14836C21.2185 5.13738 21.2272 5.15569 21.2274 5.15624C21.2254 5.15131 21.2233 5.14609 21.2213 5.14102C21.2081 5.10689 21.1973 5.0719 21.1889 5.03629C21.1847 5.01847 21.1813 5.0005 21.1782 4.98243C21.1774 4.97835 21.1767 4.97422 21.1764 4.97007C21.1764 4.97041 21.1783 4.99188 21.1777 4.97903C21.1774 4.96963 21.1758 4.96017 21.1752 4.95077C21.1741 4.93393 21.1737 4.91704 21.1743 4.90015C21.1743 4.89272 21.1751 4.88538 21.1756 4.87795C21.1773 4.85215 21.1718 4.89346 21.1756 4.87573C21.1791 4.85936 21.1835 4.8432 21.1888 4.82733C21.1904 4.82265 21.2007 4.79779 21.1963 4.80695C21.192 4.8161 21.2041 4.79217 21.2067 4.7876C21.2112 4.77957 21.2169 4.77228 21.2216 4.76436C21.2276 4.75392 21.2162 4.77297 21.2151 4.77278C21.2158 4.77278 21.221 4.76618 21.2218 4.76549C21.2253 4.76229 21.2416 4.7484 21.2263 4.75997C21.2111 4.77154 21.2296 4.75938 21.2335 4.75667C21.2473 4.74722 21.2065 4.76618 21.2279 4.75978C21.2463 4.75426 21.2117 4.75978 21.2168 4.76061C21.2214 4.76123 21.226 4.76123 21.2306 4.76061C21.2386 4.75909 21.2129 4.7581 21.2123 4.75786C21.2152 4.75864 21.2182 4.75922 21.2212 4.75958C21.2262 4.76138 21.2313 4.76288 21.2364 4.76406C21.2422 4.765 21.2101 4.75067 21.2265 4.75992C21.2349 4.76485 21.2432 4.76928 21.2513 4.7744C21.2692 4.78563 21.2403 4.7648 21.2439 4.76849C21.2465 4.7713 21.2499 4.77366 21.2529 4.77632C21.2586 4.78124 21.2634 4.7876 21.269 4.79282C21.2798 4.80266 21.2525 4.76554 21.26 4.78129C21.2615 4.78444 21.2638 4.7875 21.2655 4.79055C21.2672 4.7936 21.2692 4.79798 21.2711 4.80173C21.2793 4.81773 21.2719 4.80714 21.2686 4.79508C21.2753 4.8197 21.2868 4.84407 21.2946 4.86859C21.3251 4.96539 21.3494 5.06441 21.3711 5.16347C21.3791 5.19169 21.398 5.21563 21.4236 5.23012C21.4493 5.2446 21.4796 5.24847 21.5081 5.24088C21.5364 5.23243 21.5602 5.21344 21.5746 5.18788C21.5891 5.16233 21.593 5.13221 21.5855 5.10385Z" fill="#1C4480"/>
<path d="M21.9515 6.34665C21.9385 6.23252 21.9229 6.11844 21.9036 6.00524C21.8834 5.88776 21.867 5.71193 21.7291 5.67195C21.5204 5.61139 21.4606 5.89352 21.4468 6.0372C21.4395 6.11724 21.4381 6.19772 21.4426 6.27797C21.4438 6.37508 21.4602 6.47142 21.4911 6.56354C21.507 6.62155 21.5439 6.67169 21.5946 6.70441C21.6231 6.71878 21.6549 6.72543 21.6868 6.7237C21.7187 6.72197 21.7496 6.71192 21.7763 6.69456C21.8919 6.62307 21.9437 6.47546 21.9514 6.34695C21.9514 6.31757 21.9397 6.28939 21.9188 6.26861C21.8979 6.24784 21.8696 6.23616 21.84 6.23616C21.8105 6.23616 21.7821 6.24784 21.7612 6.26861C21.7403 6.28939 21.7286 6.31757 21.7286 6.34695C21.7286 6.34665 21.7242 6.38496 21.7275 6.36467C21.7256 6.37615 21.7231 6.38753 21.72 6.39875C21.7171 6.40978 21.7134 6.42041 21.7098 6.43119C21.6999 6.46221 21.7192 6.41711 21.7039 6.44483C21.6957 6.4596 21.6876 6.47438 21.678 6.48841C21.6914 6.46871 21.6752 6.49131 21.6722 6.49446C21.6682 6.4986 21.6642 6.50249 21.66 6.50628C21.6722 6.49757 21.6735 6.49643 21.6639 6.50323L21.6576 6.50702C21.649 6.51135 21.6493 6.51135 21.6584 6.50702L21.6655 6.50392C21.6536 6.50682 21.6574 6.50663 21.6768 6.50323C21.66 6.50431 21.6993 6.5085 21.7043 6.5116L21.7164 6.52145C21.7084 6.51342 21.7094 6.51544 21.7193 6.5276C21.7126 6.51647 21.7064 6.50496 21.701 6.49313C21.7132 6.51977 21.7019 6.49358 21.7002 6.48846C21.6964 6.47723 21.693 6.46581 21.69 6.45434C21.6855 6.43759 21.6819 6.42066 21.6787 6.40362C21.6772 6.3956 21.676 6.38752 21.6745 6.37949C21.6688 6.34715 21.6766 6.40224 21.6731 6.36925C21.6687 6.32878 21.6656 6.28841 21.6642 6.24774C21.6618 6.18166 21.6632 6.11551 21.6685 6.0496C21.6695 6.03848 21.672 6.02681 21.672 6.01563C21.672 6.06177 21.6716 6.01977 21.6735 6.00844C21.6757 5.9959 21.6781 5.98338 21.6807 5.97087C21.6846 5.95315 21.689 5.93552 21.6944 5.91819C21.6972 5.90938 21.7005 5.90081 21.7035 5.89209C21.694 5.91922 21.7051 5.88963 21.7084 5.88362C21.7115 5.87921 21.7144 5.87464 21.717 5.86994C21.7225 5.85709 21.6985 5.89106 21.7118 5.87693C21.719 5.8692 21.7316 5.86373 21.7035 5.88185C21.7134 5.87545 21.7218 5.87589 21.6912 5.88545C21.714 5.87831 21.6601 5.885 21.6826 5.88614C21.6462 5.88431 21.6559 5.88121 21.6665 5.88456C21.6819 5.88914 21.6363 5.86871 21.6557 5.88062C21.67 5.88948 21.6319 5.86063 21.6447 5.87186C21.647 5.87381 21.6492 5.87591 21.6512 5.87816C21.6647 5.89328 21.6326 5.8498 21.6463 5.87269C21.6571 5.89106 21.6363 5.84222 21.6463 5.87348C21.6496 5.88402 21.6529 5.89456 21.6558 5.90519C21.6706 5.96004 21.6805 6.01632 21.6901 6.07225C21.696 6.10725 21.7014 6.1423 21.7066 6.17742C21.7092 6.1952 21.7115 6.21297 21.7141 6.23075C21.7151 6.23789 21.7203 6.263 21.7141 6.22962C21.7153 6.23616 21.7159 6.24291 21.7168 6.24931C21.721 6.28166 21.7251 6.31406 21.7288 6.34651C21.7296 6.37562 21.7417 6.40331 21.7624 6.42391C21.7831 6.44451 21.8109 6.45645 21.8402 6.45729C21.8697 6.45707 21.8978 6.44534 21.9187 6.42464C21.9395 6.40394 21.9513 6.37593 21.9515 6.34665Z" fill="#1C4480"/>
<path d="M19.1926 2.94258C19.2886 3.07073 19.4009 3.18589 19.5268 3.28512C19.5744 3.32357 19.6264 3.35621 19.6818 3.38232C19.7081 3.39643 19.7387 3.40041 19.7677 3.39349C19.7888 3.38771 19.8078 3.37585 19.8222 3.35941C19.8366 3.34297 19.8458 3.32267 19.8486 3.30105C19.8515 3.27944 19.8478 3.25747 19.8382 3.2379C19.8285 3.21833 19.8133 3.20202 19.7944 3.19103C19.7667 3.17866 19.7401 3.16421 19.7147 3.1478C19.7012 3.13918 19.688 3.13012 19.6751 3.12077C19.6684 3.11584 19.6621 3.11092 19.6553 3.106C19.6843 3.12638 19.6598 3.10929 19.6536 3.10432C19.6036 3.06352 19.5562 3.01972 19.5116 2.97315C19.4759 2.93629 19.4416 2.89821 19.4086 2.85892C19.3987 2.84697 19.3888 2.83489 19.3789 2.82268C19.3762 2.81929 19.3735 2.81579 19.3707 2.81239C19.3621 2.80146 19.3928 2.84085 19.3849 2.83056C19.3694 2.8063 19.3458 2.78826 19.3183 2.77965C19.2893 2.77199 19.2584 2.776 19.2324 2.79083C19.2071 2.80585 19.1888 2.83015 19.1813 2.85849C19.1738 2.88682 19.1778 2.91695 19.1924 2.94238L19.1926 2.94258Z" fill="#1C4480"/>
<path d="M20.0239 3.74234C20.203 3.8514 20.3814 3.96268 20.5535 4.08233C20.5791 4.09701 20.6094 4.10108 20.638 4.09364C20.6665 4.0862 20.691 4.06785 20.706 4.04259C20.7202 4.01705 20.7239 3.98707 20.7165 3.95885C20.709 3.93064 20.691 3.90634 20.666 3.89099C20.4939 3.77139 20.3154 3.66007 20.1362 3.551C20.1235 3.54366 20.1096 3.53887 20.0951 3.53689C20.0806 3.53492 20.0658 3.5358 20.0517 3.53949C20.0375 3.54318 20.0242 3.54961 20.0126 3.55841C20.0009 3.56721 19.9911 3.5782 19.9837 3.59076C19.9763 3.60333 19.9715 3.61721 19.9695 3.63163C19.9676 3.64605 19.9684 3.66071 19.9722 3.67479C19.9759 3.68886 19.9823 3.70207 19.9912 3.71366C20 3.72525 20.0111 3.735 20.0237 3.74234H20.0239Z" fill="#1C4480"/>
<path d="M20.7858 4.37174C20.8268 4.41389 20.865 4.45894 20.902 4.50443C20.9106 4.51497 20.9192 4.52557 20.9276 4.53624C20.9317 4.54117 20.9358 4.54668 20.9399 4.55185C20.9194 4.52605 20.9369 4.54806 20.9412 4.55387C20.9605 4.57908 20.9792 4.60465 20.9975 4.63058C21.0381 4.68823 21.0757 4.7479 21.1103 4.80936C21.1252 4.83473 21.1496 4.85316 21.1782 4.86061C21.2068 4.86806 21.2372 4.86391 21.2627 4.84907C21.2882 4.83424 21.3068 4.80993 21.3142 4.78151C21.3217 4.75308 21.3176 4.72286 21.3026 4.69749C21.233 4.57586 21.153 4.46042 21.0635 4.35244C21.0251 4.30532 20.9857 4.25889 20.9434 4.21507C20.933 4.20478 20.9207 4.19662 20.9072 4.19105C20.8937 4.18548 20.8792 4.18262 20.8646 4.18262C20.85 4.18262 20.8355 4.18548 20.822 4.19105C20.8084 4.19662 20.7962 4.20478 20.7858 4.21507C20.7755 4.22535 20.7673 4.23757 20.7617 4.25101C20.7561 4.26445 20.7532 4.27885 20.7532 4.2934C20.7532 4.30795 20.7561 4.32236 20.7617 4.3358C20.7673 4.34924 20.7755 4.36145 20.7858 4.37174Z" fill="#1C4480"/>
<path d="M21.3087 5.33832C21.312 5.34187 21.3152 5.34556 21.3184 5.34925C21.3215 5.35294 21.3253 5.35747 21.3287 5.36166C21.331 5.36452 21.3332 5.36747 21.3356 5.37028C21.346 5.38278 21.3168 5.34507 21.327 5.3593C21.3557 5.39847 21.3824 5.43906 21.4069 5.48091C21.4229 5.50878 21.4377 5.53724 21.4515 5.56629C21.4562 5.57614 21.4608 5.58599 21.4653 5.59583C21.4678 5.6014 21.4781 5.62538 21.4677 5.60076C21.4758 5.62012 21.4835 5.63964 21.4908 5.6593C21.5228 5.74692 21.5464 5.83732 21.5614 5.92932C21.5694 5.95759 21.5883 5.9816 21.6139 5.99609C21.6396 6.01058 21.67 6.01438 21.6985 6.00667C21.7265 5.99816 21.7502 5.97929 21.7647 5.95395C21.7792 5.92861 21.7833 5.89872 21.7763 5.87043C21.7474 5.69421 21.6874 5.52444 21.5991 5.36895C21.5622 5.30156 21.5176 5.23867 21.4661 5.18155C21.4451 5.161 21.4168 5.14948 21.3873 5.14948C21.3578 5.14948 21.3295 5.161 21.3085 5.18155C21.2882 5.20263 21.2769 5.23069 21.2769 5.25989C21.2769 5.28908 21.2882 5.31714 21.3085 5.33822L21.3087 5.33832Z" fill="#1C4480"/>
<path d="M21.0408 6.01015C21.0408 6.01015 20.9962 5.89572 20.9313 5.90035C20.9487 6.06461 20.9506 6.08189 20.9616 6.18554C20.9726 6.28918 20.9735 6.48175 21.0161 6.82104C21.0586 7.16034 21.2076 8.00934 21.0584 8.81422C20.9602 8.93362 20.8885 8.99438 20.8937 8.73707C20.899 8.47975 20.9567 7.24517 20.8863 7.0724C20.8159 6.89963 20.683 6.81592 20.6106 6.80977C20.7201 6.96042 20.7823 7.13996 20.7893 7.32573C20.7927 7.41864 20.7765 8.61658 20.7876 8.72028C20.7986 8.82397 20.8142 9.15465 20.9793 8.9897C21.0063 9.18208 21.014 9.19276 21.0887 9.28331C21.1634 9.37385 21.1005 9.57947 21.0478 9.69646C20.9951 9.81345 21.2116 10.2169 21.2469 10.3033C21.2821 10.3896 21.5033 10.5683 21.629 10.3332C21.7064 10.1405 21.4524 10.2961 21.4379 10.2833C21.4235 10.2704 21.2921 10.2734 21.1374 9.92517C21.2806 9.67819 21.3355 9.39463 21.3041 9.28454C21.2726 9.17444 21.1286 9.04529 21.1286 9.04529C21.1286 9.04529 21.3022 8.89965 21.3473 8.95568C21.3925 9.01171 21.4421 9.11103 21.3881 9.27774C21.4659 9.33575 21.6297 9.40423 21.661 9.51438C21.6922 9.62452 21.7947 9.54845 21.7966 9.44052C21.7932 9.38581 21.7748 9.33306 21.7436 9.28788C21.7124 9.24271 21.6694 9.2068 21.6192 9.184C21.5383 9.15839 21.5608 9.12368 21.5846 8.98089C21.6084 8.8381 21.5527 8.43628 21.1896 8.82259C21.2175 8.65597 21.5044 7.73587 21.3689 7.07467C21.4585 6.93591 21.5543 6.68569 21.5635 6.5883C21.5728 6.49091 21.5133 6.14329 21.5133 6.14329C21.5133 6.14329 21.4515 6.80834 21.3386 6.97314C21.296 6.8176 21.2197 6.65152 21.216 6.61691C21.2122 6.58229 21.1933 6.34241 21.1933 6.34241C21.1933 6.34241 21.3556 6.15151 21.3811 6.08435C21.4065 6.01719 21.4578 5.82448 21.4102 5.868C21.3627 5.91153 21.2761 6.01783 21.2414 5.99848C21.2068 5.97913 21.1599 5.90587 21.0408 6.01015Z" fill="#1C4480"/>
<path d="M22.0783 4.71418C22.0867 4.61003 22.1087 4.50741 22.1437 4.40891C22.1612 4.57316 22.1631 4.59044 22.1741 4.69419C22.1851 4.79793 22.2209 4.95126 22.2519 5.3035C22.2829 5.65574 22.3268 6.62208 22.5973 6.95822C22.6973 6.85615 22.7653 6.76083 22.7123 6.56856C22.6593 6.37628 22.4226 5.51926 22.4019 5.2423C22.3828 5.01743 22.4142 4.79116 22.4937 4.57981C22.4669 4.9998 22.5114 5.16829 22.5264 5.2483C22.5415 5.32832 22.7817 6.23955 22.7927 6.3433C22.8037 6.44704 22.8543 6.73872 22.693 6.93838C22.7083 7.1437 22.7043 7.16748 22.6625 7.38816C22.6208 7.60884 22.7095 7.64523 22.7733 7.63199C22.8371 7.61874 22.8247 8.29989 22.8133 8.43835C22.8019 8.5768 22.7494 9.00285 22.5286 9.13353C22.4311 9.13619 22.5918 8.86962 22.6007 8.83052C22.7009 8.56202 22.7502 8.27742 22.7462 7.99107C22.5864 8.08251 22.4895 7.96843 22.4932 7.81919C22.497 7.66995 22.5857 7.28053 22.5857 7.28053C22.5857 7.28053 22.4213 7.51254 22.3964 7.64671C22.3715 7.78088 22.3513 7.95833 22.4255 7.98177C22.3752 8.18305 22.2592 8.56405 22.2555 8.71324C22.2518 8.86243 22.1565 9.00763 22.1346 8.9256C22.1128 8.84357 22.1666 8.5514 22.2255 8.36951C22.2845 8.18763 22.2602 8.20516 22.2141 8.14051C22.168 8.07586 22.1358 7.64774 22.4952 7.22686C22.4415 7.15148 22.0408 6.99958 22.0219 6.20834C21.9249 6.27801 21.8164 6.36058 21.7905 6.30233C21.7676 6.22897 21.7509 6.15384 21.7406 6.07771C21.7406 6.07771 21.9062 6.16343 22.0264 6.06786C22.0304 5.86028 22.059 5.57687 22.0553 5.54235C22.0517 5.50783 22.0211 5.28085 22.0211 5.28085C22.0211 5.28085 21.8569 5.45451 21.8241 5.45244C21.7914 5.45037 21.7143 5.40109 21.7598 5.34033C21.8053 5.27957 21.8939 5.1905 21.9174 5.10611C21.9435 4.96589 21.9983 4.8325 22.0783 4.71418Z" fill="#1C4480"/>
<path d="M21.5484 7.19831C21.5484 7.19831 21.9641 6.95995 22.0647 6.86665C22.1653 6.77334 22.0848 7.04661 22.0848 7.04661C22.1304 7.20868 22.1579 7.37523 22.1669 7.54327C22.1719 8.25327 22.0513 8.43328 21.8233 8.52664C21.8233 8.52664 21.5212 8.63328 21.4948 8.08665C21.473 7.63327 21.5686 7.39831 21.5686 7.39831C21.5686 7.39831 21.4479 7.23829 21.5484 7.19831Z" fill="#1C4480"/>
<path d="M21.3573 7.15332C21.3573 7.15332 21.5032 7.23333 21.5987 7.23333C21.6942 7.23333 21.5685 7.3483 21.5685 7.3483C21.4921 7.31143 21.4182 7.26967 21.3473 7.22328L21.307 7.18832L21.3623 7.1283L21.3573 7.15332Z" fill="#1C4480"/>
<path d="M19.4577 0.261749C19.4127 0.321818 19.5369 0.489324 19.735 0.635953C19.9331 0.782582 20.1302 0.852598 20.1752 0.792627C20.2202 0.732655 20.0959 0.565051 19.8979 0.418422C19.6998 0.271793 19.5027 0.201679 19.4577 0.261749Z" fill="#1C4480"/>
<path d="M9.98121 6.32533L9.69053 6.39018L9.44026 6.48132L9.21584 6.58521L9.01776 6.70269L8.8593 6.84582L8.71416 7.00185L8.59556 7.15774L8.49009 7.34007L8.41081 7.5351L8.34475 7.73072L8.30548 7.93879L8.27914 8.14672L8.26562 8.38104L8.25254 8.60241L8.26562 8.83669L8.27914 9.07076L8.31836 9.55225L8.38456 10.0206L8.45022 10.4762L8.49009 10.9185L8.50296 11.1266L8.51628 11.335L8.50296 11.5172L8.49009 11.6993L8.46354 11.8683L8.42388 12.0243L8.35822 12.1545L8.27914 12.2847L8.21288 12.2455L8.1336 12.1936L8.05462 12.0898L7.96187 11.9723L7.9226 11.8812L7.88293 11.7901L7.85639 11.6861L7.8302 11.582L7.8036 11.4518L7.79073 11.3087V11.1527V10.9833L7.63192 11.0096L7.55299 11.0353L7.48718 11.0616L7.43439 11.0879L7.38165 11.1266L7.34179 11.1789L7.31544 11.2176L7.26271 11.335L7.23611 11.4518L7.22339 11.582L7.24963 11.7252L7.27598 11.8683L7.32891 12.0115L7.39458 12.1545L7.46078 12.3105L7.55299 12.4408L7.64539 12.584L7.73799 12.7012L7.84347 12.8052L8.19941 12.6751L8.50296 12.5318L8.63483 12.467L8.74056 12.3888L8.84643 12.3105L8.93863 12.2327L9.01776 12.1545L9.09684 12.0634L9.14958 11.9856L9.20237 11.8945L9.24218 11.8035L9.26858 11.7124L9.32132 11.5172L9.33478 11.322L9.32132 11.1007L9.30824 10.8793L9.26858 10.6323L9.18945 10.1117L9.14958 9.82547L9.12304 9.5264L9.11031 9.43531L9.08372 9.1749L9.0703 8.78454L9.08372 8.56322L9.09684 8.31605L9.12304 8.05563L9.17578 7.79571L9.24218 7.52229L9.33478 7.26237L9.45338 7.00185L9.51939 6.88496L9.59852 6.76753L9.6778 6.65069L9.76986 6.53326L9.87573 6.42932L9.98121 6.32533Z" fill="#1C4480"/>
<path d="M12.1061 13.0266V12.8444L12.1192 12.6751L12.1717 12.3497L12.2376 12.0376L12.3302 11.7643L12.5154 11.2437L12.607 10.9966L12.6865 10.7625L12.7393 10.5149L12.7521 10.398V10.281V10.1637L12.7393 10.0335L12.7263 9.90376L12.6865 9.77353L12.6337 9.64325L12.581 9.50012L12.5015 9.35703L12.4097 9.21405L12.3032 9.05796L12.1846 8.90149L12.0395 8.73255L11.8682 8.55043L11.5118 8.83669L11.1289 9.12276L10.6806 9.43532L10.6673 8.97968L10.6806 8.51128L10.7069 7.96499L10.7199 7.69158L10.7597 7.43116L10.8125 7.18404L10.8652 6.96281L10.9443 6.76754L10.9843 6.68984L11.0369 6.62436L11.0897 6.57241L11.1425 6.52042L11.2083 6.49412H11.2745L11.3272 6.54676L11.3932 6.59875L11.472 6.6507L11.5646 6.70269L11.6572 6.74174L11.7627 6.76754L11.8813 6.78039L11.9868 6.79368L12.1061 6.78039L12.2245 6.75474L12.3431 6.70269L12.4755 6.6374L12.5939 6.54676L12.7123 6.42933L12.8318 6.27334L12.9373 6.10397L12.8447 6.14311L12.7521 6.18225L12.6595 6.19506L12.5682 6.2214H12.3829L12.2116 6.20786L12.0266 6.15591L11.8553 6.09112L11.683 6.01293L11.5118 5.92184L11.3138 5.99993L11.1425 6.09112L10.9707 6.19506L10.8125 6.31249L10.6806 6.44218L10.5487 6.58521L10.4433 6.75474L10.3378 6.92411L10.2581 7.11904L10.1789 7.32717L10.1262 7.56144L10.0868 7.79571L10.0471 8.05564L10.034 8.34235V8.64142L10.0471 8.95343L10.1395 10.2941L10.166 10.9966L10.1922 11.6861V12.0115V12.3238L10.166 12.6231L10.1395 12.8835L10.0998 13.1306L10.0471 13.3387L9.98124 13.508L9.94163 13.5728L9.90231 13.6382L9.73063 13.5336L9.58509 13.4426L9.4403 13.3778L9.32135 13.3257L9.21587 13.2865L9.11035 13.2609L9.0178 13.2476H8.93867L8.84646 13.2609L8.78021 13.2865L8.63487 13.3387L8.33191 13.4816L8.49012 13.5336L8.63487 13.5858L8.75386 13.6641L8.85934 13.7422L9.03107 13.8981L9.11035 13.9631L9.18948 14.0284L9.26861 14.0805L9.34755 14.1061L9.45342 14.1195L9.57197 14.0933L9.70408 14.0542L9.84957 13.9631L10.034 13.8462L10.245 13.6769L10.3243 13.5991L10.4034 13.5208L10.4696 13.4426L10.5353 13.352L10.6408 13.1564L10.7199 12.9483L10.7727 12.727L10.8125 12.5062L10.8391 12.2719V12.0376V11.8163L10.8259 11.595L10.799 11.1789L10.7463 10.8145L10.7199 10.554L10.6935 9.78633L10.7597 9.72159L10.8259 9.64325L10.918 9.5913L10.9973 9.53921L11.0897 9.50012L11.1819 9.48727L11.2745 9.50012L11.3669 9.52641L11.4462 9.5913L11.5388 9.68239L11.6044 9.81268L11.683 9.98146L11.7369 10.19L11.7885 10.45L11.8285 10.7625L11.8553 11.1266L11.8682 11.3742V11.6211L11.8424 12.0243L11.8154 12.363L11.7627 12.662L11.7369 12.9092L11.7099 13.1564V13.2865L11.7231 13.404L11.7369 13.5336L11.7627 13.6769L11.8424 13.9764L11.8813 14.1195L11.934 14.2364L11.9868 14.3405L12.0534 14.4315L12.1061 14.5098L12.1846 14.5746L12.2505 14.6268L12.3302 14.6529L12.4097 14.6659H12.4884L12.581 14.6401L12.6734 14.6009L12.7791 14.536L12.8846 14.4448L13.0032 14.3405L13.056 14.2627L13.0827 14.2364V14.1972V14.1716L13.0689 14.1453L13.0299 14.1061L12.9633 14.0805L12.7652 14.0023L12.6595 13.9501L12.5412 13.8981L12.4357 13.8199L12.3302 13.716L12.2376 13.5991L12.1977 13.5208L12.1588 13.4426L12.1321 13.352L12.1192 13.2609L12.1061 13.1434V13.0266Z" fill="#1C4480"/>
<path d="M14.9432 10.0598H14.9162L14.6794 9.87757L14.547 9.76068L14.4284 9.63045L14.2962 9.50011L14.1776 9.35703L14.0721 9.201L13.9795 9.04467L13.901 8.88863L13.8473 8.73255L13.8084 8.57608V8.42019L13.8213 8.34235L13.8344 8.26416L13.8611 8.19872L13.901 8.12093L13.9537 8.04274L14.0063 7.97784L14.0721 7.91245L14.1508 7.84766L14.3361 7.9388L14.521 8.06893L14.7053 8.22501L14.8904 8.40714L15.0616 8.61522L15.1413 8.73255L15.2071 8.84949L15.2727 8.97967L15.3255 9.10991L15.3783 9.23965L15.4179 9.38332L15.4577 9.30504L15.4976 9.22685L15.5365 9.07076L15.5503 8.90149V8.73255L15.5107 8.57608L15.4577 8.40714L15.3783 8.23786L15.2727 8.08173L15.1541 7.92594L15.0358 7.76937L14.8904 7.62638L14.7322 7.49645L14.5738 7.36626L14.4017 7.24888L14.2305 7.14494L14.0592 7.0538L13.901 7.27517L13.7685 7.48315L13.6499 7.67828L13.5574 7.86046L13.4649 8.04274L13.3993 8.21221L13.3325 8.38105L13.2936 8.53742L13.2669 8.69341L13.2409 8.83669L13.2271 8.96682V9.09661L13.2409 9.21404L13.254 9.33069L13.2797 9.44812L13.3196 9.55226L13.3993 9.73439L13.5048 9.90376L13.6103 10.0598L13.7287 10.19L13.8611 10.2941L13.9666 10.398L14.1508 10.5411L14.3232 10.6971L14.4682 10.8535L14.5868 11.0224L14.6924 11.1789L14.7711 11.3478L14.8507 11.5172L14.9034 11.6861L14.9432 11.8554L14.9689 12.0115V12.1675V12.3105L14.9561 12.4537L14.9301 12.584L14.8904 12.7012L14.8507 12.8052L14.7978 12.8964L14.7322 12.9746L14.6656 13.0394L14.5868 13.0785L14.5072 13.0915H14.4284L14.3361 13.0652L14.2434 13.0266L14.1508 12.9483L14.0592 12.8572L13.9666 12.727L13.8742 12.571L13.7816 12.376L13.6888 12.1546L13.5972 11.9073L13.5177 11.6083L13.4391 11.2829L13.3862 11.4653L13.3466 11.6603L13.3325 11.8683V12.0898L13.3595 12.3105L13.3993 12.5318L13.4521 12.7532L13.5177 12.9613L13.5972 13.1564L13.6888 13.3257L13.7945 13.4816L13.901 13.6119L13.9537 13.651L14.0194 13.703L14.0721 13.7294L14.138 13.7551L14.2036 13.7679H14.2702L14.3361 13.7551L14.4017 13.7294L14.521 13.6641L14.6525 13.5728L14.811 13.456L14.9689 13.3129L15.1274 13.1434L15.2859 12.9483L15.431 12.727L15.5634 12.4928L15.6162 12.363L15.656 12.2327L15.6949 12.1026L15.7217 11.9595L15.7347 11.8163V11.6733L15.7217 11.53L15.7088 11.3742L15.6689 11.2176L15.6162 11.0616L15.5503 10.8922L15.4709 10.7362L15.3651 10.5673L15.2469 10.398L15.1014 10.2287L14.9432 10.0598Z" fill="#1C4480"/>
<path d="M9.80627 18.8823V18.8491C9.85646 18.8479 9.90615 18.8389 9.95359 18.8226C9.98815 18.811 10.0182 18.7889 10.0395 18.7595C10.0555 18.7257 10.0641 18.6889 10.0648 18.6515C10.0696 18.598 10.072 18.5111 10.072 18.3906V18.0035C10.0736 17.9314 10.0704 17.8592 10.0625 17.7876C10.0595 17.7556 10.0482 17.7251 10.0295 17.6989C10.0068 17.6765 9.97835 17.6607 9.94725 17.6532C9.9014 17.6396 9.85407 17.6315 9.80627 17.6291V17.5939C9.82975 17.5946 9.85566 17.595 9.88402 17.5953C9.91238 17.5956 9.95424 17.5958 10.0096 17.5958C10.0777 17.5958 10.1285 17.5956 10.1619 17.5953C10.1954 17.595 10.2259 17.5943 10.2536 17.5931C10.2494 17.6563 10.2463 17.7117 10.2442 17.7595C10.2421 17.8073 10.241 17.8459 10.241 17.8754V18.4973C10.2391 18.567 10.2425 18.6368 10.2514 18.706C10.2554 18.736 10.2677 18.7642 10.2871 18.7876C10.3109 18.8091 10.3399 18.8242 10.3712 18.8314C10.4168 18.8428 10.4635 18.8488 10.5104 18.8494V18.8826C10.4147 18.8808 10.3427 18.8798 10.2944 18.8794C10.2462 18.8791 10.2013 18.879 10.1597 18.879C10.1182 18.879 10.0733 18.8792 10.0251 18.8794C9.97687 18.8797 9.90393 18.8807 9.80627 18.8823Z" fill="#1C4480"/>
<path d="M10.7199 18.9281L10.7019 18.8895C10.8378 18.8259 10.9622 18.7404 11.0702 18.6366C11.1601 18.5475 11.2277 18.4387 11.2676 18.3189C11.225 18.3442 11.1795 18.3643 11.1321 18.3786C11.089 18.3914 11.0442 18.3979 10.9992 18.3979C10.9481 18.4004 10.897 18.3922 10.8492 18.3738C10.8015 18.3555 10.7582 18.3273 10.722 18.2912C10.6859 18.2552 10.6578 18.2119 10.6395 18.1644C10.6213 18.1168 10.6133 18.066 10.616 18.0151C10.6139 17.9568 10.6241 17.8987 10.6458 17.8444C10.6675 17.7902 10.7003 17.741 10.7421 17.7C10.7851 17.659 10.8359 17.627 10.8915 17.6059C10.9472 17.5849 11.0066 17.5752 11.0661 17.5774C11.1266 17.5741 11.1872 17.5833 11.2439 17.6044C11.3007 17.6255 11.3525 17.658 11.396 17.7C11.4375 17.7455 11.4696 17.7988 11.4902 17.8567C11.5109 17.9147 11.5197 17.9761 11.5162 18.0375C11.5166 18.2347 11.4418 18.4247 11.3069 18.5692C11.1469 18.7386 10.9442 18.8625 10.7199 18.9281ZM11.2866 18.2567C11.2961 18.2191 11.3035 18.181 11.3088 18.1426C11.3138 18.1059 11.3164 18.069 11.3165 18.032C11.3217 17.9288 11.2976 17.8262 11.2469 17.7359C11.2283 17.7026 11.201 17.6749 11.1679 17.6556C11.1348 17.6364 11.097 17.6264 11.0587 17.6267C11.0227 17.6258 10.987 17.6335 10.9547 17.6492C10.9223 17.6649 10.8943 17.6882 10.873 17.717C10.8243 17.7933 10.7999 17.8824 10.8032 17.9726C10.8065 18.0629 10.8373 18.15 10.8915 18.2225C10.9195 18.2554 10.9546 18.2816 10.9942 18.2992C11.0338 18.3168 11.0768 18.3253 11.1202 18.3241C11.1511 18.3245 11.1818 18.3188 11.2105 18.3074C11.2389 18.2956 11.2648 18.2783 11.2866 18.2567Z" fill="#1C4480"/>
<path d="M11.5984 18.8859L11.5858 18.8599C11.7625 18.7178 11.9223 18.5562 12.0621 18.3782C12.1627 18.2403 12.213 18.1157 12.213 18.0044C12.2173 17.9324 12.1951 17.8614 12.1507 17.8044C12.1292 17.7802 12.1026 17.7611 12.0727 17.7486C12.0428 17.7361 12.0105 17.7304 11.9781 17.7321C11.9231 17.7327 11.8694 17.7478 11.8221 17.7756C11.7645 17.8099 11.7133 17.8539 11.6707 17.9055L11.6428 17.883C11.6855 17.7943 11.7475 17.7162 11.8244 17.6543C11.8902 17.6057 11.9702 17.5799 12.0522 17.5811C12.098 17.5801 12.1435 17.5888 12.1857 17.6067C12.2278 17.6246 12.2657 17.6513 12.2966 17.6849C12.3624 17.7551 12.3976 17.8482 12.3947 17.9441C12.3947 18.055 12.3472 18.1741 12.2523 18.3013C12.1223 18.4632 11.9725 18.6082 11.8063 18.7332L12.1353 18.7296C12.1819 18.7308 12.2284 18.7281 12.2745 18.7215C12.298 18.7179 12.3204 18.7086 12.3395 18.6945C12.3624 18.6738 12.3828 18.6507 12.4006 18.6256C12.4265 18.5896 12.4504 18.5522 12.4724 18.5137L12.504 18.529L12.3648 18.8821C12.2817 18.8809 12.2169 18.88 12.1705 18.8794C12.1242 18.8789 12.0811 18.8786 12.0413 18.8786C11.96 18.8786 11.8828 18.8791 11.8099 18.8803C11.737 18.8815 11.6665 18.8834 11.5984 18.8859Z" fill="#1C4480"/>
<path d="M12.6655 18.9281L12.6474 18.8895C12.7833 18.8259 12.9078 18.7404 13.0157 18.6366C13.1056 18.5475 13.1733 18.4387 13.2132 18.3189C13.1706 18.3442 13.1251 18.3643 13.0776 18.3786C13.0345 18.3914 12.9898 18.3979 12.9448 18.3979C12.8936 18.4004 12.8425 18.3922 12.7948 18.3738C12.747 18.3555 12.7037 18.3273 12.6676 18.2912C12.6315 18.2552 12.6034 18.2119 12.5851 18.1644C12.5668 18.1168 12.5588 18.066 12.5616 18.0151C12.5595 17.9568 12.5696 17.8986 12.5913 17.8444C12.6131 17.7902 12.6459 17.741 12.6877 17.7C12.778 17.621 12.8942 17.5774 13.0145 17.5774C13.1348 17.5774 13.251 17.621 13.3413 17.7C13.3829 17.7455 13.4149 17.7988 13.4356 17.8567C13.4562 17.9147 13.465 17.9761 13.4615 18.0375C13.4619 18.2347 13.3872 18.4247 13.2523 18.5692C13.0923 18.7386 12.8897 18.8625 12.6655 18.9281ZM13.2321 18.2567C13.2417 18.2191 13.2491 18.181 13.2543 18.1426C13.2593 18.1059 13.2619 18.069 13.262 18.032C13.2673 17.9288 13.2432 17.8262 13.1924 17.7359C13.1738 17.7026 13.1465 17.6748 13.1134 17.6556C13.0803 17.6364 13.0426 17.6264 13.0042 17.6267C12.9682 17.6258 12.9325 17.6334 12.9002 17.6492C12.8678 17.6649 12.8398 17.6882 12.8185 17.717C12.7697 17.7933 12.7454 17.8824 12.7487 17.9726C12.7521 18.0629 12.7828 18.15 12.837 18.2225C12.865 18.2554 12.9001 18.2817 12.9397 18.2992C12.9793 18.3168 13.0223 18.3253 13.0657 18.3241C13.0966 18.3245 13.1273 18.3188 13.1561 18.3074C13.1845 18.2956 13.2103 18.2783 13.2321 18.2567Z" fill="#1C4480"/>
<path d="M9.19094 18.2681H7.85413V18.3173H9.19094V18.2681Z" fill="#1C4480"/>
<path d="M15.4965 18.2681H14.1597V18.3173H15.4965V18.2681Z" fill="#1C4480"/>
<path d="M7.87435 17.2002L7.87366 17.1744C7.92533 17.1767 7.97621 17.1612 8.01776 17.1305C8.04169 17.1059 8.05364 17.0485 8.05361 16.9582V16.4503C8.05361 16.3588 8.04214 16.3003 8.01919 16.2748C7.98064 16.2431 7.93207 16.2261 7.88208 16.2266V16.2007C7.92753 16.2007 7.99057 16.2012 8.07119 16.2022C8.15181 16.2031 8.20968 16.2036 8.2448 16.2035C8.30528 16.2035 8.36726 16.2033 8.43075 16.2028C8.49423 16.2024 8.56768 16.2017 8.65111 16.2007L8.62932 16.4342H8.60822C8.61027 16.4059 8.60593 16.3776 8.59553 16.3512C8.58512 16.3249 8.56892 16.3011 8.54811 16.2818C8.51087 16.2539 8.43859 16.2399 8.33126 16.2399H8.18929V16.6746H8.35444C8.40791 16.6787 8.46137 16.6665 8.5077 16.6397C8.52463 16.6262 8.53819 16.6091 8.54734 16.5896C8.55649 16.5701 8.56097 16.5487 8.56044 16.5272L8.58361 16.5279C8.5813 16.5735 8.57955 16.6165 8.57836 16.6568C8.57718 16.6971 8.57658 16.7361 8.57658 16.7739C8.57658 16.8056 8.57671 16.8296 8.57698 16.8459C8.57724 16.8622 8.57734 16.8773 8.57727 16.8913H8.55623C8.55838 16.8694 8.55536 16.8473 8.54743 16.8268C8.5395 16.8063 8.52686 16.7879 8.51052 16.7731C8.46504 16.7454 8.41183 16.7329 8.3587 16.7375H8.18929V16.9511C8.18929 17.0383 8.20334 17.0953 8.23143 17.1222C8.25953 17.149 8.31788 17.1664 8.40648 17.1743V17.2002H8.39806C8.27902 17.1983 8.19068 17.1974 8.13304 17.1974C8.10115 17.1974 8.06706 17.1976 8.03078 17.1981L7.87435 17.2002Z" fill="#1C4480"/>
<path d="M8.73163 16.6963C8.72846 16.6274 8.74007 16.5586 8.76568 16.4945C8.79129 16.4304 8.83033 16.3724 8.88019 16.3245C8.989 16.2282 9.1315 16.1782 9.27699 16.1854C9.34844 16.182 9.41986 16.193 9.48695 16.2176C9.55405 16.2423 9.61545 16.2802 9.66749 16.329C9.71699 16.3792 9.75555 16.4391 9.78076 16.5048C9.80597 16.5705 9.81729 16.6407 9.81402 16.711C9.81692 16.7795 9.8051 16.8478 9.77935 16.9113C9.75359 16.9749 9.7145 17.0323 9.66467 17.0797C9.55609 17.176 9.41384 17.226 9.26852 17.2191C9.19713 17.2225 9.12579 17.2116 9.05872 17.187C8.99164 17.1625 8.9302 17.1249 8.87801 17.0763C8.82857 17.0264 8.79005 16.9669 8.76486 16.9015C8.73967 16.8361 8.72835 16.7663 8.73163 16.6963ZM8.90317 16.676C8.89743 16.8046 8.93502 16.9314 9.00998 17.0363C9.04062 17.0799 9.08147 17.1153 9.129 17.1396C9.17653 17.1639 9.22929 17.1763 9.28273 17.1758C9.33316 17.1773 9.38322 17.1668 9.4288 17.1453C9.47439 17.1238 9.51419 17.0919 9.54493 17.0521C9.61506 16.9567 9.65003 16.8402 9.64397 16.7222C9.64418 16.6627 9.63638 16.6035 9.6208 16.5461C9.60693 16.4932 9.58461 16.443 9.55469 16.3972C9.522 16.345 9.47763 16.301 9.42505 16.2686C9.35612 16.2305 9.27588 16.2178 9.19847 16.2328C9.12105 16.2477 9.05143 16.2894 9.00186 16.3504C8.9323 16.4445 8.89745 16.5595 8.90317 16.6762V16.676Z" fill="#1C4480"/>
<path d="M10.0001 16.8168V16.4497C10.0016 16.4074 9.9989 16.365 9.99203 16.3233C9.98815 16.304 9.97788 16.2865 9.96286 16.2737C9.94475 16.2598 9.92427 16.2492 9.9024 16.2426C9.8761 16.2348 9.84894 16.2302 9.82153 16.2289V16.2031C9.852 16.204 9.88457 16.2047 9.91924 16.2052C9.9539 16.2056 10.0064 16.2058 10.0767 16.2059C10.1479 16.2059 10.2012 16.2057 10.2366 16.2052C10.272 16.2047 10.305 16.204 10.3356 16.2031L10.3363 16.2289C10.2792 16.2242 10.2224 16.2409 10.1771 16.2758C10.1497 16.3046 10.136 16.3621 10.136 16.4481V16.8029C10.1343 16.8571 10.1396 16.9114 10.1518 16.9643C10.1613 17 10.1795 17.0329 10.2049 17.0599C10.2354 17.0914 10.273 17.1154 10.3145 17.1297C10.3626 17.1467 10.4133 17.155 10.4643 17.1544C10.5234 17.1567 10.5821 17.1438 10.6347 17.117C10.6817 17.089 10.7187 17.0471 10.7405 16.9972C10.7562 16.9593 10.7656 16.9191 10.7683 16.8781C10.7737 16.8262 10.7764 16.7435 10.7764 16.6298C10.7778 16.5527 10.7749 16.4755 10.7676 16.3987C10.7648 16.3648 10.7547 16.3319 10.7379 16.3023C10.7207 16.2778 10.6964 16.2589 10.6683 16.2481C10.632 16.2351 10.5937 16.2286 10.5552 16.2289V16.2031C10.5809 16.204 10.6083 16.2048 10.6374 16.2052C10.6665 16.2056 10.7105 16.2059 10.7695 16.2059C10.8286 16.2059 10.8735 16.2059 10.9027 16.2052C10.932 16.2044 10.9591 16.204 10.9839 16.2031V16.2289H10.9811C10.9573 16.2267 10.9334 16.2317 10.9126 16.2434C10.8918 16.255 10.875 16.2726 10.8645 16.2939C10.8434 16.3372 10.8328 16.4464 10.8328 16.6215C10.8328 16.6364 10.8326 16.6587 10.8321 16.6885C10.8302 16.8506 10.8166 16.9607 10.7913 17.0189C10.763 17.0851 10.7119 17.1392 10.6472 17.1715C10.5692 17.2086 10.4834 17.2264 10.397 17.2235C10.3272 17.2252 10.2577 17.2143 10.1917 17.1914C10.1392 17.173 10.0933 17.1397 10.0596 17.0957C10.038 17.0657 10.0226 17.0317 10.0143 16.9958C10.0031 16.9368 9.99836 16.8768 10.0001 16.8168Z" fill="#1C4480"/>
<path d="M11.0522 17.2002L11.0515 17.1744C11.0808 17.1761 11.1101 17.1704 11.1366 17.1578C11.1631 17.1452 11.186 17.1261 11.203 17.1023C11.2299 17.0579 11.2434 16.9662 11.2434 16.8273V16.5527C11.2434 16.5402 11.2434 16.5235 11.2441 16.5026C11.2448 16.4817 11.2448 16.467 11.2448 16.4587C11.2462 16.4233 11.2414 16.3879 11.2307 16.3541C11.2207 16.3286 11.2048 16.3057 11.1843 16.2872C11.1651 16.2699 11.1428 16.2563 11.1186 16.2472C11.0912 16.2368 11.0624 16.2306 11.0332 16.2287V16.2028C11.0487 16.2028 11.0712 16.2033 11.1007 16.2042C11.1302 16.2051 11.1518 16.2056 11.1654 16.2056C11.1794 16.2056 11.1998 16.2052 11.2265 16.2042C11.2532 16.2033 11.2727 16.2028 11.2849 16.2028L12.0047 16.9681V16.6385C12.0066 16.555 12.0032 16.4714 11.9945 16.3883C11.991 16.3536 11.9786 16.3205 11.9583 16.2921C11.9421 16.2723 11.9207 16.2574 11.8964 16.2489C11.8645 16.2376 11.8312 16.2308 11.7974 16.2287V16.2028C11.8227 16.2038 11.8499 16.2045 11.8789 16.2049C11.908 16.2053 11.9504 16.2056 12.0062 16.2056C12.062 16.2056 12.1024 16.2056 12.1289 16.2049C12.1554 16.2042 12.1796 16.2038 12.2016 16.2028V16.2287H12.1904C12.1665 16.228 12.1431 16.2351 12.1237 16.2489C12.1043 16.2628 12.09 16.2826 12.0831 16.3053C12.0575 16.3981 12.0472 16.4944 12.0526 16.5904V16.8957C12.0526 16.9668 12.0531 17.0298 12.0543 17.0847C12.0555 17.1397 12.0571 17.1906 12.0589 17.2374H12.0504C12.0214 17.204 11.9899 17.168 11.9559 17.1293L11.8993 17.065L11.2905 16.4246V16.7067C11.2905 16.8457 11.2932 16.9392 11.2986 16.9874C11.3005 17.0234 11.31 17.0586 11.3264 17.0908C11.3408 17.1126 11.3613 17.1297 11.3854 17.14C11.4223 17.1559 11.461 17.1671 11.5007 17.1735V17.2H11.4965C11.3974 17.1982 11.3236 17.1972 11.2751 17.1972C11.2479 17.1972 11.2186 17.1975 11.1872 17.1979C11.1558 17.1984 11.1108 17.1992 11.0522 17.2002Z" fill="#1C4480"/>
<path d="M12.2721 17.2002V17.1744C12.326 17.1755 12.3787 17.1589 12.4221 17.1272C12.453 17.0841 12.4667 17.0312 12.4605 16.9787V16.4132C12.4658 16.3651 12.453 16.3167 12.4246 16.2774C12.3854 16.2469 12.3373 16.2298 12.2875 16.2287V16.2028C12.3682 16.2019 12.4539 16.2006 12.5448 16.199C12.6357 16.1974 12.6872 16.1966 12.6995 16.1966C12.9094 16.1966 13.0739 16.242 13.193 16.3329C13.2509 16.3761 13.2974 16.4326 13.3285 16.4976C13.3596 16.5626 13.3743 16.6342 13.3715 16.7061C13.3745 16.7761 13.3605 16.8457 13.3309 16.9093C13.3012 16.9728 13.2567 17.0284 13.201 17.0713C13.0874 17.1599 12.9307 17.2042 12.7311 17.2042C12.6927 17.2042 12.6218 17.2037 12.5185 17.2025C12.4152 17.2014 12.3331 17.2006 12.2721 17.2002ZM12.5989 16.9381C12.5989 17.0309 12.6139 17.0925 12.6439 17.123C12.6739 17.1535 12.7299 17.1688 12.8119 17.1688C12.8642 17.1703 12.9162 17.1602 12.9641 17.1393C13.012 17.1184 13.0546 17.0872 13.0889 17.0479C13.1661 16.9475 13.2039 16.8226 13.1952 16.6965C13.1865 16.5704 13.1318 16.4518 13.0414 16.3629C12.9381 16.2739 12.7948 16.2294 12.6116 16.2294H12.5989V16.9381Z" fill="#1C4480"/>
<path d="M13.3881 17.2002V17.1744C13.4425 17.173 13.4954 17.1561 13.5406 17.1258C13.5654 17.1028 13.5778 17.0533 13.5778 16.9773V16.4286C13.5778 16.3483 13.5655 16.2953 13.5409 16.2696C13.5021 16.2388 13.4531 16.2235 13.4035 16.2266V16.2007C13.4504 16.2019 13.5003 16.2026 13.5532 16.203C13.6062 16.2034 13.683 16.2035 13.7838 16.2035C13.9014 16.2035 13.9875 16.2034 14.0421 16.203C14.0967 16.2026 14.1458 16.2021 14.1894 16.2015C14.1851 16.2331 14.1815 16.2671 14.1785 16.3035C14.1755 16.3399 14.1726 16.3816 14.1697 16.4286H14.1477C14.1488 16.4014 14.144 16.3743 14.1337 16.3491C14.1235 16.3239 14.108 16.3011 14.0883 16.2823C14.032 16.2497 13.9669 16.2354 13.902 16.2414H13.7138V16.6538H13.8586C13.9151 16.6585 13.9717 16.6481 14.0227 16.6237C14.0396 16.6106 14.0534 16.5941 14.0634 16.5753C14.0734 16.5565 14.0793 16.5359 14.0807 16.5147H14.104C14.104 16.5408 14.1029 16.5818 14.1008 16.6378C14.0987 16.6937 14.0976 16.7373 14.0977 16.7685V16.851H14.0765C14.0765 16.8306 14.0716 16.8105 14.0623 16.7924C14.0531 16.7743 14.0396 16.7585 14.0231 16.7465C13.9723 16.7226 13.9161 16.7124 13.86 16.7169H13.7138V16.9713C13.7138 17.0491 13.7298 17.1004 13.7616 17.1251C13.7935 17.1498 13.8556 17.1622 13.9479 17.1621C14.02 17.1663 14.0911 17.1441 14.1477 17.0996C14.2011 17.0481 14.2352 16.9801 14.2444 16.9067L14.2676 16.9095C14.265 16.9615 14.259 17.0132 14.2497 17.0644C14.2411 17.1115 14.2287 17.1579 14.2128 17.2031C14.1449 17.2012 14.0706 17.1998 13.9899 17.1989C13.9092 17.1979 13.8214 17.1975 13.7263 17.1975C13.6378 17.1975 13.5698 17.1977 13.5225 17.1982C13.4751 17.1986 13.4303 17.1993 13.3881 17.2002Z" fill="#1C4480"/>
<path d="M14.3306 17.2002V17.1744C14.3844 17.1755 14.4372 17.1589 14.4806 17.1272C14.5115 17.0841 14.5251 17.0312 14.519 16.9787V16.4132C14.5242 16.3651 14.5115 16.3167 14.4831 16.2774C14.4439 16.2469 14.3958 16.2298 14.346 16.2287V16.2028C14.4266 16.2019 14.5124 16.2006 14.6035 16.199C14.6946 16.1974 14.7462 16.1966 14.7581 16.1966C14.9681 16.1966 15.1326 16.242 15.2516 16.3329C15.3095 16.3761 15.356 16.4326 15.3871 16.4976C15.4182 16.5626 15.433 16.6342 15.4301 16.7061C15.4331 16.7761 15.4191 16.8457 15.3895 16.9093C15.3598 16.9728 15.3153 17.0284 15.2597 17.0713C15.146 17.1599 14.9894 17.2042 14.7898 17.2042C14.7513 17.2042 14.6805 17.2037 14.5771 17.2025C14.4738 17.2014 14.3916 17.2006 14.3306 17.2002ZM14.6574 16.9381C14.6574 17.0309 14.6724 17.0925 14.7024 17.123C14.7324 17.1535 14.7884 17.1688 14.8704 17.1688C14.9227 17.1703 14.9747 17.1602 15.0226 17.1393C15.0705 17.1184 15.1131 17.0872 15.1474 17.0479C15.2246 16.9475 15.2624 16.8226 15.2537 16.6965C15.2449 16.5704 15.1902 16.4518 15.0999 16.3629C14.9966 16.2739 14.8533 16.2294 14.6701 16.2294H14.6574V16.9381Z" fill="#1C4480"/>
<path d="M8.31599 14.3321C8.29519 14.3129 8.2837 14.3018 8.27746 14.2953C8.27167 14.291 8.26479 14.2859 8.25642 14.2796C8.20101 14.2377 8.14782 14.1967 8.09652 14.1516L2.88211 20.4998L2.88607 20.5038C2.85456 20.5321 2.82977 20.567 2.8135 20.606C2.79723 20.645 2.78987 20.6871 2.79198 20.7292C2.79408 20.7714 2.80559 20.8126 2.82566 20.8498C2.84573 20.887 2.87388 20.9193 2.90805 20.9443C2.94222 20.9694 2.98156 20.9866 3.02324 20.9947C3.06491 21.0027 3.10787 21.0015 3.14901 20.991C3.19014 20.9806 3.22842 20.9612 3.26108 20.9342C3.29374 20.9072 3.31995 20.8733 3.33783 20.835L8.59018 14.466C8.4875 14.4492 8.39211 14.4026 8.31599 14.3321Z" fill="#1C4480"/>
<path d="M8.07462 6.4278C8.14756 6.35759 8.23984 6.31055 8.33974 6.29264L3.42874 0.313347L2.98608 0.693361L7.93666 6.69668C7.95193 6.59449 8.00038 6.50007 8.07462 6.4278Z" fill="#1C4480"/>
<path d="M14.938 6.46783C15.0102 6.53709 15.0581 6.62761 15.0747 6.72603L20.033 0.713404L19.5905 0.333389L14.6638 6.33174C14.7668 6.34903 14.8622 6.3964 14.938 6.46783Z" fill="#1C4480"/>
<path d="M20.0861 20.5038L20.0901 20.4998L14.8965 14.1765C14.8864 14.2096 14.8726 14.2413 14.8553 14.2713C14.8185 14.3368 14.7661 14.3924 14.7028 14.4333C14.6394 14.4742 14.567 14.4991 14.4918 14.5058C14.4735 14.5152 14.4545 14.5233 14.4351 14.5301L19.6346 20.835C19.6524 20.8734 19.6786 20.9072 19.7113 20.9342C19.744 20.9612 19.7823 20.9806 19.8234 20.9911C19.8645 21.0016 19.9075 21.0028 19.9492 20.9947C19.9909 20.9867 20.0302 20.9695 20.0644 20.9444C20.0986 20.9193 20.1267 20.887 20.1468 20.8498C20.1669 20.8126 20.1784 20.7714 20.1805 20.7293C20.1826 20.6871 20.1752 20.645 20.1589 20.606C20.1426 20.567 20.1178 20.5321 20.0863 20.5038H20.0861Z" fill="#1C4480"/>
<path d="M35.8379 14.05C35.8379 15.0983 35.8808 15.8368 35.9666 16.2657C36.0524 16.6946 36.1982 17.0077 36.4039 17.2049C36.6233 17.4093 36.9182 17.5812 37.2886 17.7207C37.6591 17.8602 38.1323 17.9742 38.7084 18.0627L38.6981 18.4412C37.6624 18.4277 36.8736 18.4175 36.3318 18.4105C35.79 18.4035 35.2893 18.4001 34.8297 18.4003C33.9723 18.4003 32.6931 18.4139 30.992 18.4412H30.9303V18.0627C31.5132 17.9743 31.9916 17.8603 32.3655 17.7207C32.7393 17.5811 33.0326 17.4092 33.2451 17.2049C33.4577 17.0078 33.6069 16.6947 33.6927 16.2657C33.7785 15.8368 33.8214 15.0982 33.8214 14.05V4.549H32.3606C31.0437 4.549 30.0835 4.75018 29.4798 5.15255C28.8762 5.55492 28.4406 6.26083 28.173 7.2703L27.813 7.2089L28.2141 3.16818H28.461L29.0989 3.84337C29.7573 3.84337 30.7279 3.84677 32.0106 3.85357C33.2933 3.86036 34.2535 3.86378 34.8913 3.86381C35.5223 3.86381 36.4688 3.86039 37.7309 3.85357C38.993 3.84674 39.936 3.84334 40.5601 3.84337L41.2598 3.16818H41.4244L41.7845 7.24996L41.445 7.32131C41.198 6.32596 40.7676 5.61512 40.1538 5.18879C39.54 4.76246 38.6294 4.54919 37.4222 4.549H35.8376L35.8379 14.05Z" fill="#1C4480"/>
<path d="M41.8868 18.4412L41.8765 18.0627C42.5143 18.0355 42.9379 17.9062 43.1471 17.6748C43.3563 17.4435 43.4609 16.8415 43.4609 15.8687L43.4403 6.22685C43.4403 5.79721 43.4008 5.4716 43.3219 5.25003C43.2377 5.02049 43.0982 4.81497 42.9156 4.65145L42.3703 4.19113V4.00699L44.9526 2.96355L45.1687 3.06581L45.0452 10.1235C45.7654 9.63966 46.4307 9.27501 47.0412 9.02955C47.6516 8.78408 48.1935 8.6614 48.6667 8.6615C49.6475 8.6615 50.3643 8.93723 50.817 9.48868C51.2697 10.0401 51.5132 10.9388 51.5475 12.1848L51.6401 16.1238C51.6674 16.9674 51.7806 17.4861 51.9796 17.68C52.1786 17.8739 52.5832 18.0015 53.1936 18.0626V18.4411C52.9328 18.4276 52.6395 18.4174 52.3139 18.4105C51.9883 18.4035 51.4893 18.4001 50.817 18.4002C50.1447 18.4002 49.6337 18.4036 49.284 18.4105C48.9343 18.4173 48.612 18.4275 48.3169 18.4411L48.3066 18.0626C48.9582 17.9947 49.392 17.8519 49.6081 17.6343C49.8242 17.4166 49.9322 16.9677 49.9322 16.2874C49.9322 16.233 49.9288 16.1309 49.9219 15.9812C49.915 15.8314 49.9116 15.7124 49.9116 15.624L49.8704 13.1951C49.843 12.0045 49.6218 11.1423 49.2069 10.6085C48.792 10.0747 48.1421 9.80761 47.2572 9.80725C46.9024 9.80914 46.5501 9.86598 46.213 9.97574C45.8183 10.1071 45.4403 10.2834 45.0864 10.5012V15.8483C45.0864 16.7464 45.1978 17.3332 45.4207 17.6087C45.6436 17.8843 46.0878 18.0356 46.7531 18.0627L46.7428 18.4412C46.4547 18.4277 46.1392 18.4175 45.7963 18.4106C45.4534 18.4036 44.9424 18.4002 44.2633 18.4003C43.6049 18.4003 43.111 18.4037 42.7818 18.4106C42.4526 18.4174 42.1543 18.4276 41.8868 18.4412Z" fill="#1C4480"/>
<path d="M61.3555 15.9247L61.6538 16.1804C61.112 16.965 60.4981 17.5583 59.8123 17.9604C59.1372 18.3599 58.3653 18.5685 57.5797 18.5639C56.3313 18.5639 55.2819 18.1087 54.4315 17.1984C53.581 16.288 53.1558 15.1508 53.1558 13.7867C53.1558 12.3545 53.6102 11.1423 54.519 10.1499C55.4278 9.15753 56.5337 8.66141 57.8368 8.66154C58.8862 8.66154 59.7315 8.9548 60.3728 9.54132C61.0141 10.1278 61.3622 10.9292 61.4171 11.9453C60.2442 11.9044 59.1314 11.8737 58.0786 11.8532C57.0257 11.8328 56.026 11.8225 55.0795 11.8225C55.0319 12.0109 54.9976 12.2023 54.9766 12.3954C54.9556 12.5959 54.9453 12.7974 54.9458 12.999C54.9458 14.2198 55.3024 15.2326 56.0157 16.0372C56.729 16.8418 57.6173 17.2442 58.6804 17.2443C59.1901 17.2485 59.6938 17.1347 60.1516 16.912C60.6219 16.6761 61.0332 16.3388 61.3555 15.9247ZM59.2876 11.3008C59.1503 10.6052 58.9205 10.0715 58.5983 9.69976C58.276 9.32802 57.8816 9.14222 57.4151 9.14235C56.8801 9.14235 56.4085 9.34527 56.0004 9.75112C55.5923 10.157 55.3128 10.7076 55.162 11.4031L59.2876 11.3008Z" fill="#1C4480"/>
<path d="M83.3624 16.8066V17.1845C82.1963 17.709 81.0886 18.0991 80.0392 18.3546C79.0467 18.603 78.0277 18.7317 77.0042 18.7379C74.4733 18.7379 72.4397 18.0576 70.9034 16.6969C69.3672 15.3363 68.599 13.5444 68.5989 11.3213C68.5989 10.196 68.8081 9.16449 69.2265 8.22669C69.6449 7.28888 70.2725 6.45512 71.1092 5.72542C71.9229 5.01373 72.8681 4.46644 73.8922 4.11413C74.9381 3.74951 76.075 3.56712 77.3028 3.56696C78.1544 3.56877 79.0043 3.64062 79.844 3.78178C80.7302 3.93039 81.6038 4.14583 82.4572 4.42625C82.4228 4.98558 82.3937 5.57382 82.3697 6.19096C82.3458 6.80811 82.3269 7.46789 82.3131 8.17031H81.9942C81.6787 6.84746 81.0974 5.83646 80.2504 5.13728C79.4033 4.43811 78.3282 4.08864 77.025 4.08887C75.2279 4.08887 73.7773 4.68734 72.6731 5.88426C71.5688 7.08119 71.0167 8.66171 71.0166 10.6258C71.0126 11.5792 71.1888 12.5249 71.5362 13.4135C71.8827 14.297 72.3941 15.1075 73.0434 15.8021C73.7019 16.5114 74.5112 17.0587 75.4714 17.444C76.4564 17.834 77.5081 18.0302 78.5683 18.0219C79.254 18.0219 79.7119 17.9164 79.9417 17.7055C80.1716 17.4945 80.2865 17.0417 80.2864 16.3471V14.3454C80.2864 13.5149 80.0875 12.9277 79.6897 12.5837C79.2919 12.2397 78.5511 12.0235 77.4674 11.935V11.5566C78.0297 11.5675 78.5802 11.577 79.1187 11.5851C79.6572 11.5932 80.1939 11.5973 80.7288 11.5975C81.2775 11.5975 81.8176 11.5941 82.3491 11.5873C82.8807 11.5805 83.4003 11.5702 83.9079 11.5566L83.9182 11.935C83.2803 12.0169 82.8533 12.1991 82.6372 12.4816C82.4212 12.764 82.3131 13.3615 82.3131 14.2738V16.8066L83.3624 16.8066Z" fill="#1C4480"/>
<path d="M86.4152 12.8288V7.45203C86.4152 6.53898 86.3758 5.92229 86.2969 5.60199C86.2181 5.28168 86.0757 5.03971 85.87 4.87608C85.605 4.6727 85.3052 4.51861 84.9852 4.42123C84.6004 4.30728 84.2031 4.24033 83.802 4.22186V3.84338C84.2477 3.85706 84.7244 3.86727 85.2321 3.874C85.7398 3.88073 86.508 3.88414 87.5366 3.88424C88.5791 3.88424 89.3593 3.88083 89.8773 3.874C90.3952 3.86717 90.877 3.85697 91.3227 3.84338L91.333 4.22186C90.1809 4.25603 89.4041 4.48435 89.0027 4.90681C88.6014 5.32926 88.4008 6.17086 88.4009 7.4316V12.6244C88.4009 13.6467 88.478 14.4338 88.6323 14.9857C88.7708 15.5091 89.0377 15.9902 89.4091 16.3859C89.8274 16.829 90.3624 17.1698 91.0141 17.4082C91.6658 17.6467 92.3962 17.7659 93.2055 17.766C94.2205 17.766 95.0522 17.5839 95.7004 17.2195C96.3486 16.8551 96.8648 16.2707 97.2489 15.4663C97.4407 15.0643 97.576 14.4833 97.655 13.7233C97.7339 12.9632 97.7733 11.752 97.7732 10.0895C97.7732 8.46779 97.7303 7.34005 97.6444 6.70633C97.5586 6.07262 97.4129 5.60233 97.2075 5.29549C96.9547 4.93658 96.6 4.66081 96.1887 4.50345C95.7567 4.32974 95.2046 4.23601 94.5325 4.22226V3.84377C94.9095 3.85746 95.3106 3.86767 95.7359 3.8744C96.1611 3.88112 96.8059 3.88454 97.6701 3.88464C98.5413 3.88464 99.1911 3.88122 99.6195 3.8744C100.048 3.86757 100.444 3.85736 100.808 3.84377V4.22226H100.767C99.9368 4.22226 99.3675 4.53915 99.059 5.17293C98.7505 5.80672 98.5961 7.40488 98.5958 9.96743C98.5958 10.1853 98.5925 10.5124 98.5859 10.9486C98.5583 13.3204 98.3594 14.9322 97.9892 15.784C97.5636 16.7655 96.8604 17.51 95.8797 18.0176C94.8989 18.5252 93.6783 18.7788 92.2178 18.7786C91.045 18.7786 90.0436 18.6218 89.2136 18.3082C88.3837 17.9947 87.739 17.5278 87.2794 16.9076C86.9633 16.4687 86.7378 15.9719 86.6159 15.4459C86.4821 14.8938 86.4152 14.0215 86.4152 12.8288Z" fill="#1C4480"/>
<path d="M101.597 18.4412V18.0627C102.667 18.0015 103.391 17.7821 103.768 17.4043C104.145 17.0265 104.334 16.1878 104.334 14.8883V7.38611C104.334 6.09323 104.148 5.25961 103.778 4.88524C103.408 4.51087 102.681 4.28975 101.597 4.22186V3.84338C102.022 3.84338 102.658 3.85019 103.505 3.86381C104.353 3.87743 104.985 3.88424 105.404 3.88424C105.822 3.88424 106.444 3.87743 107.271 3.86381C108.098 3.85019 108.713 3.84338 109.118 3.84338V4.22186C108.034 4.28998 107.307 4.51451 106.937 4.89548C106.566 5.27645 106.381 6.10666 106.381 7.38611V14.8882C106.381 16.1813 106.568 17.02 106.942 17.4042C107.316 17.7885 108.041 18.008 109.118 18.0626L109.107 18.4411C108.065 18.4207 107.288 18.4088 106.777 18.4054C106.266 18.4021 105.788 18.4003 105.342 18.4002C104.896 18.4002 104.417 18.402 103.907 18.4054C103.396 18.4089 102.626 18.4208 101.597 18.4412Z" fill="#1C4480"/>
<path d="M109.953 18.4412V18.0627C111.043 17.9748 111.775 17.7446 112.149 17.3721C112.523 16.9996 112.71 16.2751 112.71 15.1984V6.92249C112.71 5.95763 112.535 5.29524 112.185 4.93531C111.835 4.57539 111.167 4.33757 110.179 4.22186V3.84338C111.359 3.82982 112.614 3.81101 113.944 3.78695C115.275 3.76289 116.03 3.75101 116.208 3.7513C119.281 3.7513 121.688 4.41624 123.43 5.74611C125.173 7.07598 126.044 8.89686 126.044 11.2088C126.044 13.473 125.212 15.2547 123.549 16.5537C121.885 17.8528 119.593 18.5024 116.671 18.5026C116.108 18.5026 115.071 18.494 113.559 18.4769C112.046 18.4597 110.844 18.4478 109.953 18.4412ZM114.737 14.605C114.737 15.9623 114.956 16.8642 115.395 17.3107C115.834 17.7572 116.654 17.9806 117.854 17.9809C119.507 17.9809 120.858 17.391 121.908 16.2111C122.957 15.0313 123.482 13.49 123.482 11.5873C123.482 9.28905 122.726 7.4886 121.213 6.18594C119.701 4.88329 117.604 4.23199 114.922 4.23206H114.737L114.737 14.605Z" fill="#1C4480"/>
<path d="M127.384 11.0656C127.384 8.79452 128.109 6.98044 129.56 5.62329C131.011 4.26614 132.946 3.58757 135.368 3.58757C137.748 3.58757 139.653 4.28827 141.083 5.68966C142.513 7.09106 143.228 8.95463 143.228 11.2804C143.228 13.5174 142.499 15.3161 141.042 16.6764C139.584 18.0368 137.652 18.7172 135.244 18.7174C132.864 18.7174 130.959 18.0218 129.529 16.6305C128.1 15.2393 127.384 13.3843 127.384 11.0656ZM129.895 10.7688C129.895 12.9241 130.416 14.6818 131.458 16.0422C132.501 17.4025 133.832 18.0828 135.45 18.0831C137.042 18.0831 138.321 17.4796 139.288 16.2725C140.255 15.0654 140.739 13.4559 140.738 11.444C140.741 10.5735 140.627 9.70651 140.399 8.86612C140.173 8.041 139.85 7.31469 139.432 6.68721C138.869 5.84161 138.237 5.21418 137.534 4.80492C136.831 4.39575 136.033 4.19116 135.142 4.19112C133.571 4.19112 132.304 4.79467 131.34 6.00178C130.377 7.20888 129.895 8.79791 129.894 10.7688H129.895Z" fill="#1C4480"/>
<path d="M143.179 18.4412L143.169 18.0627C144.252 18.0083 144.991 17.6564 145.386 17.0071C145.78 16.3578 145.978 15.0165 145.978 12.9834V8.96461C145.978 8.78115 145.981 8.53644 145.988 8.23048C145.995 7.92452 145.998 7.71027 145.998 7.58773C145.998 6.92825 145.93 6.4183 145.792 6.05788C145.645 5.68352 145.413 5.34826 145.113 5.0786C144.832 4.82549 144.506 4.62667 144.151 4.49228C143.751 4.34025 143.329 4.24913 142.901 4.22196V3.84347C143.128 3.84347 143.457 3.85029 143.889 3.86391C144.321 3.87753 144.637 3.88434 144.836 3.88434C145.041 3.88434 145.34 3.87753 145.731 3.86391C146.122 3.85029 146.406 3.84347 146.585 3.84347L157.12 15.0437V10.2191C157.12 8.41042 157.07 7.18989 156.97 6.55749C156.871 5.92508 156.694 5.45597 156.441 5.15014C156.228 4.87805 155.926 4.66722 155.535 4.51763C155.144 4.36805 154.661 4.26946 154.084 4.22186V3.84338C154.455 3.85706 154.853 3.86727 155.278 3.874C155.703 3.88073 156.324 3.88414 157.14 3.88424C157.949 3.88424 158.548 3.88083 158.935 3.874C159.323 3.86744 159.677 3.85723 160 3.84338V4.22186H159.835C159.088 4.22186 158.565 4.59585 158.266 5.34384C157.968 6.09182 157.819 7.48235 157.819 9.51543V13.9829C157.819 15.0234 157.828 15.9458 157.845 16.75C157.862 17.5542 157.884 18.2987 157.912 18.9834H157.788C157.363 18.4941 156.902 17.967 156.404 17.4021C155.907 16.8373 155.631 16.5237 155.576 16.4614L146.667 7.08792V11.2189C146.667 13.2522 146.706 14.6207 146.785 15.3243C146.864 16.0279 146.999 16.5327 147.192 16.8387C147.37 17.1308 147.658 17.3722 148.056 17.5628C148.454 17.7534 149.016 17.9166 149.743 18.0523V18.4412H149.682C148.234 18.4141 147.154 18.4004 146.441 18.4003C146.043 18.4003 145.614 18.4037 145.155 18.4106C144.695 18.4174 144.037 18.4276 143.179 18.4412Z" fill="#1C4480"/>
</svg>
