<svg width="622" height="317" viewBox="0 0 622 317" fill="none" xmlns="http://www.w3.org/2000/svg">
<path d="M114.847 85.0023C111.159 88.1097 85.6157 109.682 73.6922 122.768C72.2597 124.342 69.819 127.114 67.823 131.256C64.2876 138.601 64.3771 145.631 64.9417 150.178L88.7128 158.147C88.6469 151.528 89.1772 143.831 90.9123 135.361C95.6309 112.301 106.898 95.0941 114.847 85.0023Z" fill="#FAD319"/>
<path d="M114.847 85.0023C114.847 85.0023 184.052 14.9894 285.179 33.5763C277.33 38.1357 269.477 42.6976 261.629 47.2571C250.862 48.6005 239.673 50.3614 228.113 52.6267C182.091 61.6389 142.505 76.2003 110.125 91.3739C111.699 89.2501 113.273 87.1262 114.853 84.9998L114.847 85.0023Z" fill="#8F2786"/>
<path d="M549.015 211.475C556.632 208.033 609.409 184.104 635.501 167.587C638.636 165.6 644.022 162.054 649.331 155.83C658.74 144.789 661.984 132.275 663.241 123.898L627.659 96.4447C624.574 108.217 619.98 121.565 613.015 135.611C594.061 173.848 567.07 198.039 549.015 211.475Z" fill="#8F2786"/>
<path d="M549.015 211.475C549.015 211.475 400.444 296.812 241.678 207.178C256.895 203.493 272.123 199.807 287.341 196.123C305.846 199.775 325.256 202.926 345.522 205.388C426.206 215.206 498.893 211.578 559.922 202.826C556.286 205.709 552.65 208.592 549.005 211.477L549.015 211.475Z" fill="#FAD319"/>
<path d="M0.962148 198.462C26.2221 198.382 59.3121 195.412 96.1321 183.992C170.172 161.022 217.932 116.722 241.072 91.7522C232.692 106.922 194.532 172.002 114.092 196.222C64.3521 211.202 21.5521 203.602 0.952148 198.462H0.962148Z" fill="#FAD319"/>
<path d="M424.744 146.796C443.116 164.131 469.157 184.762 503.721 201.834C573.229 236.159 638.367 236.92 672.341 234.746C655.818 239.977 583.334 260.895 508.324 223.07C461.939 199.683 436.135 164.701 424.736 146.789L424.744 146.796Z" fill="#ED6226"/>
</svg>
