<svg width="390" height="566" viewBox="0 0 390 566" fill="none" xmlns="http://www.w3.org/2000/svg">
<path d="M-19.3581 349.584C-21.6726 353.816 -37.6833 383.167 -44.0662 399.68C-44.8325 401.665 -46.1054 405.132 -46.468 409.715C-47.1073 417.842 -44.4808 424.364 -42.31 428.398L-17.2656 427.23C-19.7213 421.083 -22.011 413.715 -23.4574 405.191C-27.399 381.986 -23.1191 361.868 -19.3581 349.584Z" fill="#FAD319"/>
<path d="M-19.3579 349.584C-19.3579 349.584 19.8361 259.28 120.839 240.03C115.171 247.119 109.5 254.213 103.832 261.303C94.2808 266.449 84.4855 272.138 74.5285 278.431C34.8824 303.48 3.24287 331.375 -21.4556 357.233C-20.7564 354.683 -20.0571 352.134 -19.3539 349.58L-19.3579 349.584Z" fill="#8F2786"/>
<path d="M-84.4925 496.556C-60.9718 487.344 -31.1966 472.606 -1.00038 448.641C59.7179 400.446 88.2203 341.87 100.762 310.221C98.4362 327.394 86.4001 401.871 20.1673 453.547C-20.7864 485.504 -63.4375 493.9 -84.5018 496.559L-84.4925 496.556Z" fill="#FAD319"/>
<path d="M154.497 357.724C177.896 367.24 209.636 377.055 248.035 380.469C325.252 387.328 386.255 364.477 417.142 350.161C403.63 361.014 343.62 406.734 260.007 398.602C208.304 393.577 171.594 370.297 154.488 357.721L154.497 357.724Z" fill="#ED6226"/>
<path d="M271.299 197.682C294.357 187.366 323.4 171.234 352.426 145.864C410.791 94.8446 436.485 34.9836 447.512 2.77539C446.003 20.0403 437.511 95.0034 373.802 149.761C334.41 183.624 292.204 194.032 271.29 197.686L271.299 197.682Z" fill="#F9DA2C"/>
</svg>
