<svg width="893" height="767" viewBox="0 0 893 767" fill="none" xmlns="http://www.w3.org/2000/svg">
<path d="M28.766 721.251C20.6831 696.822 14.3784 664.036 19.496 625.329C29.7956 547.493 80.5191 489.203 110.337 460C90.3781 472.255 5.46921 526.965 -4.62101 611.327C-10.8657 663.494 14.3952 702.765 28.7693 721.261L28.766 721.251Z" fill="#F9DA2C"/>
<path d="M377.305 527.983C361.487 494.117 342.494 441.589 351.003 387.807C365.032 299.036 441.274 273.819 494.829 216.951C542.152 166.704 585.17 67.1178 548.508 -152.488C582.955 -176.579 617.387 -200.655 651.834 -224.746C668.293 151.627 604.32 265.145 536.768 293.068C513.157 302.843 429.457 298.046 390.493 348.875C351.471 399.762 376.545 481.017 377.321 528.001L377.305 527.983Z" fill="#0E9AD4"/>
<path d="M172.047 332.093C171.818 332.172 189.617 377.159 181.76 433.005C178.716 454.62 172.455 473.417 159.422 500.784C143.727 533.733 116.943 581.786 72.4722 632.808C71.0132 640.179 69.5622 647.55 68.1032 654.921C112.063 613.896 138.544 570.852 153.653 541.833C168.919 512.51 181.712 487.363 186.578 450.02C195.166 384.087 172.299 332.013 172.047 332.093Z" fill="#0E9AD4"/>
</svg>
