<svg width="390" height="455" viewBox="0 0 390 455" fill="none" xmlns="http://www.w3.org/2000/svg">
<path d="M-221.459 344.515C-207.573 316.773 -182.756 278.437 -138.646 254.054C-47.3234 203.547 46.6537 257.042 142.624 254.527C227.938 252.317 346.008 205.048 486.04 2.91664C523.195 4.24352 576.375 74.5069 613.5 75.8345C339.926 343.221 180.449 310.765 99.3537 286.494C71.0041 278.021 16.0025 252.223 -57.3567 261.932C-130.837 271.644 -186.176 311.985 -221.459 344.515Z" fill="#ED6226"/>
<path d="M351.544 289.154C357.401 283.19 397.949 241.791 416.3 216.955C418.504 213.968 422.243 208.714 424.941 200.991C429.719 187.295 428.217 174.454 426.359 166.19L383.256 153.466C384.638 165.557 385.184 179.663 383.77 195.277C379.93 237.781 363.517 270.097 351.544 289.154Z" fill="#8F2786"/>
<path d="M351.544 289.154C351.544 289.154 243.901 422.452 63.4624 396.315C76.3171 387.375 89.1804 378.431 102.035 369.491C120.609 366.203 139.844 362.119 159.628 357.085C238.4 337.054 304.854 307.38 358.584 277.145C356.237 281.148 353.891 285.151 351.536 289.159L351.544 289.154Z" fill="#FAD319"/>
</svg>
