<svg width="943" height="1024" viewBox="0 0 943 1024" fill="none" xmlns="http://www.w3.org/2000/svg">
<path d="M72.0474 1016.45C64.7485 1023.28 14.0505 1070.57 -18.2142 1093.14C-22.095 1095.85 -28.9641 1100.48 -39.9294 1104.58C-59.375 1111.82 -79.4586 1112.8 -92.6599 1112.57L-125.443 1073.06C-106.543 1072.11 -84.8219 1069.96 -61.4044 1065.62C2.34555 1053.81 46.6382 1031.71 72.0474 1016.45Z" fill="#8F2786"/>
<path d="M72.0474 1016.45C72.0474 1016.45 242.38 886.439 146.589 715.926C136.91 730.125 127.227 744.334 117.548 758.534C118.274 777.222 117.989 796.704 116.422 816.901C110.203 897.313 85.439 967.578 55.8791 1025.58C61.2685 1022.53 66.6579 1019.49 72.0523 1016.44L72.0474 1016.45Z" fill="#0E9AD4"/>
<path d="M110.426 677.351C121.273 666.918 196.585 594.639 242.504 559.619C248.027 555.411 257.758 548.203 272.41 541.512C298.391 529.657 323.49 526.892 339.753 526.356L369.763 581.709C346.134 584.357 318.699 588.936 288.581 596.821C206.591 618.274 145.92 653.422 110.426 677.351Z" fill="#FAD319"/>
<path d="M117.515 670.493C117.515 670.493 -175.028 874.064 -24.4283 1139.37C-7.4166 1117.18 9.60392 1094.98 26.6156 1072.79C26.4685 1043.67 28.0588 1013.29 31.836 981.8C46.8403 856.413 92.3072 746.746 145.101 656.178C135.905 660.95 126.71 665.722 117.507 670.508L117.515 670.493Z" fill="#ED6226"/>
<path d="M752.333 67.5432C758.303 61.7013 799.709 21.2256 822.474 1.33705C825.211 -1.05292 829.977 -5.15462 836.012 -9.12754C846.71 -16.1671 854.664 -18.3688 859.474 -19.1307L852.904 9.28793C845.403 11.3847 836.282 14.6155 825.486 19.6751C796.099 33.4425 769.069 53.8324 752.333 67.5432Z" fill="#ED6226"/>
<path d="M752.333 67.5433C752.333 67.5433 626.972 181.018 581.566 306.968C591.93 295.214 602.301 283.452 612.665 271.698C621.285 257.194 630.66 241.998 640.853 226.154C681.428 163.074 724.09 106.568 762.704 59.2746C759.247 62.0308 755.79 64.7871 752.327 67.5509L752.333 67.5433Z" fill="#0E9AD4"/>
<path d="M447.58 508.593C447.399 508.495 440.757 549.061 413.3 580.265C402.669 592.342 391.112 600.531 371.773 609.956C348.485 621.3 312.02 635.35 263.031 640.016C259.137 643.867 255.243 647.718 251.349 651.569C296.003 653.058 330.262 642.066 351.595 632.896C373.151 623.632 391.445 615.496 409.56 594.377C441.532 557.103 447.773 508.702 447.58 508.593Z" fill="#8F2786"/>
<path d="M880.357 -85.0583C880.424 -84.9084 833.256 -71.0519 791.777 -39.6472C775.722 -27.4883 763.824 -15.2068 748.727 4.53325C730.553 28.3026 706.273 64.8184 689.633 111.181C684.397 115.526 679.16 119.871 673.924 124.216C682.632 83.045 702.961 49.1569 718.235 27.6147C733.667 5.84682 747.071 -12.6789 775.035 -33.4988C824.391 -70.2463 880.279 -85.2167 880.357 -85.0583Z" fill="#8F2786"/>
<path d="M400.95 426.256C400.779 426.024 480.342 394.209 543.209 334.585C567.537 311.506 584.361 289.007 604.162 253.618C627.995 211.007 658.088 146.248 670.822 66.7124C678.614 58.559 686.416 50.4108 694.208 42.2574C693.8 111.721 669.827 171.404 650.379 209.796C630.722 248.59 613.508 281.657 571.005 321.266C495.961 391.196 401.149 426.503 400.95 426.256Z" fill="#ED6226"/>
<path d="M417.564 187.859C427.016 182.355 492.627 144.252 532.099 127.282C536.846 125.244 545.197 121.796 557.528 119.484C579.393 115.391 600.002 117.45 613.283 119.654L634.471 162.714C615.065 160.806 592.445 159.633 567.444 160.323C499.386 162.193 447.889 176.916 417.564 187.859Z" fill="#FAD319"/>
<path d="M417.564 187.859C417.564 187.859 205.885 287.959 251.099 466.993C265.192 454.725 279.292 442.448 293.384 430.18C298.313 412.02 304.505 393.244 312.211 373.97C342.869 297.227 389.21 233.061 436.683 181.461C430.31 183.594 423.937 185.726 417.556 187.868L417.564 187.859Z" fill="#8F2786"/>
</svg>
