<svg width="1440" height="778" viewBox="0 0 1440 778" fill="none" xmlns="http://www.w3.org/2000/svg">
<path d="M418.652 706.853C405.838 671.74 382.051 621.202 337.957 589.254C265.188 536.511 193.499 572.697 115.415 570.47C46.4198 568.505 -54.4755 528.654 -184.104 347.636C-225.486 355.02 -266.847 362.404 -308.228 369.788C-53.3207 647.186 72.236 682.034 139.706 653.912C163.299 644.094 218.999 581.435 282.505 589.732C346.092 598.027 385.929 673.154 418.653 706.878L418.652 706.853Z" fill="#0E9AD4"/>
<path d="M282.651 514.754C290.554 515.661 345.335 521.908 373.648 522.912C377.051 523.032 382.931 523.178 389.445 522.109C400.989 520.209 407.257 515.681 410.612 512.358L385.126 488.761C379.2 493.01 371.473 497.476 361.384 501.494C333.926 512.435 302.771 514.557 282.651 514.754Z" fill="#8F2786"/>
<path d="M282.651 514.754C282.651 514.754 123.72 505.163 1.37161 414.489C16.3227 417.72 31.2832 420.954 46.2342 424.185C62.2795 431.732 79.2877 439.345 97.2629 446.925C168.824 477.112 236.568 498.76 294.945 514.398C290.847 514.517 286.749 514.635 282.642 514.752L282.651 514.754Z" fill="#0E9AD4"/>
<path d="M121.139 510.225C132.447 508.021 210.82 492.647 250.681 479.158C255.472 477.534 263.732 474.579 272.526 468.235C288.11 456.982 295.558 442.161 299.285 431.986L256.827 387.583C249.776 401.516 240.271 417.01 227.335 432.719C192.129 475.487 149.201 498.369 121.139 510.225Z" fill="#FAD319"/>
<path d="M121.139 510.225C121.139 510.225 -103.764 576.087 -301.032 419.257C-279.2 418.864 -257.354 418.472 -235.522 418.08C-210.91 427.822 -184.934 437.184 -157.615 445.92C-48.8541 480.72 52.0989 496.4 138.218 502.393C132.525 505.004 126.832 507.614 121.125 510.224L121.139 510.225Z" fill="#ED6226"/>
<path d="M832.882 482.698C839.688 482.424 886.86 480.504 910.809 478.175C913.687 477.894 918.649 477.374 923.906 476.057C933.223 473.721 937.602 470.353 939.772 468.009L913.81 456.477C909.663 459.642 904.047 463.125 896.363 466.582C875.449 475.996 849.723 480.496 832.882 482.698Z" fill="#ED6226"/>
<path d="M832.882 482.698C832.882 482.698 697.682 493.394 577.437 451.606C590.608 451.999 603.787 452.392 616.957 452.784C631.883 455.655 647.63 458.466 664.182 461.158C730.078 471.877 791.115 477.864 843.127 481.211C839.712 481.706 836.297 482.202 832.873 482.697L832.882 482.698Z" fill="#0E9AD4"/>
<path d="M172.312 445.919C172.286 445.762 139.332 448.193 102.154 432.999C87.762 427.114 75.7018 419.804 58.626 406.779C38.0672 391.095 8.57015 365.848 -20.7459 329.303C-25.6017 327.042 -30.4575 324.781 -35.3133 322.519C-12.7591 356.893 13.3515 381.02 31.2978 395.614C49.4306 410.361 65.0181 422.826 89.9319 432.752C133.905 450.272 172.335 446.086 172.312 445.919Z" fill="#F9DA2C"/>
<path d="M912.265 539.663C902.205 556.621 884.309 580.594 854.632 594.936C818.47 612.425 782.203 607.39 741.064 598.056C689.209 586.287 611.676 563.602 515.447 516.713L489.192 528.999C537.053 552.903 685.173 624.06 799.933 630.988C852.219 634.141 878.247 622.793 893.747 602.967C909.765 582.483 912.2 555.952 912.239 539.675L912.265 539.663Z" fill="#FAD319"/>
<path d="M1001.8 491.534C1001.69 491.415 975.046 510.959 935.471 517.803C920.149 520.451 906.048 520.652 884.663 518.671C858.915 516.283 820.518 510.531 776.279 495.106C770.963 495.766 765.647 496.425 760.332 497.085C797.686 514.256 832.62 520.855 855.575 523.705C878.769 526.585 898.595 528.882 924.98 524.078C971.55 515.6 1001.9 491.664 1001.8 491.534Z" fill="#8F2786"/>
<path d="M276.995 501.557C277.135 501.779 329.17 473.355 399.254 469.454C426.381 467.947 450.632 470.424 486.659 478.134C530.034 487.422 594.006 505.046 664.868 540.558C674.195 540.485 683.522 540.404 692.85 540.331C634.369 503.183 576.609 484.788 538.172 475.261C499.331 465.636 466.078 457.695 419.285 460.71C336.67 466.035 276.85 501.31 276.995 501.557Z" fill="#ED6226"/>
<path d="M625.318 609.587C632.948 607.138 685.828 590.085 712.639 576.621C715.861 575.001 721.415 572.076 727.28 566.261C737.673 555.947 742.499 543.041 744.873 534.253L715.443 498.952C710.871 511.087 704.661 524.667 696.128 538.607C672.907 576.56 644.158 598.116 625.318 609.587Z" fill="#0E9AD4"/>
<path d="M625.318 609.587C625.318 609.587 473.894 676.893 337.886 554.663C352.675 553.198 367.473 551.733 382.261 550.268C399.084 557.219 416.825 563.779 435.468 569.74C509.686 593.489 578.328 601.493 636.775 602.085C632.956 604.586 629.137 607.086 625.309 609.587L625.318 609.587Z" fill="#8F2786"/>
<path d="M-73.0347 642.005C-51.7499 655.608 -22.3168 671.018 14.8257 681.34C89.5176 702.093 153.653 690.686 186.625 682.211C171.369 690.433 104.06 724.509 23.31 701.344C-26.6237 687.023 -58.5019 657.47 -73.0431 642L-73.0347 642.005Z" fill="#8F2786"/>
<path d="M1282.18 176.222C1306.16 168.274 1336.68 155.14 1368.1 132.815C1431.3 87.9153 1462.87 30.9377 1477.08 -2.08301e-05C1473.85 17.026 1457.87 90.7571 1388.98 138.839C1346.39 168.573 1303.35 174.69 1282.17 176.225L1282.18 176.222Z" fill="#F9DA2C"/>
<path d="M773.493 413.933C787.379 386.191 812.196 347.855 856.307 323.472C947.629 272.965 1041.61 326.46 1137.58 323.945C1222.89 321.735 1340.96 274.466 1480.99 72.3346C1518.15 73.6615 1571.33 143.925 1608.45 145.252C1334.88 412.639 1175.4 380.183 1094.31 355.912C1065.96 347.439 1010.95 321.641 937.595 331.35C864.115 341.062 808.776 381.403 773.493 413.933Z" fill="#ED6226"/>
</svg>
